<svg width="1031" height="596" viewBox="0 0 1031 596" fill="none" xmlns="http://www.w3.org/2000/svg">
<path opacity="0.9" fill-rule="evenodd" clip-rule="evenodd" d="M0.291443 300.251C0.291443 37.0011 341.967 0.40271 519.733 0.40271C697.5 0.40271 1030.71 54.2733 1030.71 295.387C1030.71 536.5 511.267 595.325 511.267 595.325C511.267 595.325 0.291443 563.5 0.291443 300.251Z" fill="#1778AF"/>
<path fill-rule="evenodd" clip-rule="evenodd" d="M488.839 527.591C494.784 525.519 490.28 523.808 497.035 517.503C502.44 512.459 502.89 518.313 505.772 509.396C512.348 508.586 510.276 512.459 516.761 507.235C527.93 508.856 531.172 516.062 554.681 511.918C588.728 505.884 609.354 476.52 647.905 479.042C653.039 479.403 652.499 478.502 653.67 477.241C625.117 462.289 600.257 476.791 577.289 459.677C573.506 456.795 570.444 451.3 573.596 444.275C575.217 440.672 596.744 426.26 600.257 423.558L614.128 413.47C604.851 416.533 576.028 440.312 572.335 441.302C569.093 442.113 569.273 440.942 566.661 443.104L564.319 441.212C562.607 440.402 563.508 439.681 560.896 441.483C558.014 443.464 561.076 444.095 554.411 445.266C530.722 449.409 526.309 449.589 502.89 442.563C482.714 436.529 462.628 434.997 443.173 444.185L438.219 446.977C438.039 447.157 437.858 447.337 437.678 447.427C437.498 447.607 437.318 447.788 437.138 447.968C437.048 448.058 436.778 448.328 436.598 448.508C463.169 444.545 461.367 478.952 469.023 495.255C469.474 496.156 471.635 504.532 471.815 505.974C472.446 511.738 469.654 511.558 468.213 516.422L472.626 516.242L474.518 515.521C481.723 512.549 483.885 504.893 481.453 499.849C479.021 494.805 478.03 498.678 477.94 493.814C482.894 490.571 485.596 496.516 487.848 499.038C492.442 504.082 493.433 503.091 499.648 506.064L488.479 514.08C485.686 517.052 482.444 526.15 488.839 527.591Z" fill="#205A91"/>
<path fill-rule="evenodd" clip-rule="evenodd" d="M279.153 283.587C285.097 281.516 280.594 279.804 287.349 273.499C292.753 268.455 293.204 274.31 296.086 265.393C302.661 264.582 300.59 268.455 307.075 263.231C318.244 264.852 321.486 272.058 344.995 267.915C379.042 261.88 399.668 232.517 438.219 235.039C443.353 235.399 442.812 234.498 443.983 233.237C415.431 218.285 390.571 232.787 367.603 215.673C363.82 212.791 360.757 207.297 363.91 200.271C365.531 196.668 387.058 182.257 390.571 179.555L404.442 169.467C395.165 172.529 366.342 196.308 362.649 197.299C359.406 198.109 359.586 196.939 356.974 199.1L354.632 197.209C352.921 196.398 353.822 195.678 351.21 197.479C348.327 199.461 351.39 200.091 344.725 201.262C321.036 205.405 316.622 205.585 293.204 198.56C273.028 192.525 252.942 190.994 233.486 200.181L228.532 202.973C228.352 203.154 228.172 203.334 227.992 203.424C227.812 203.604 227.632 203.784 227.452 203.964C227.362 204.054 227.091 204.324 226.911 204.505C253.482 200.541 251.681 234.949 259.337 251.252C259.787 252.152 261.949 260.529 262.129 261.97C262.76 267.735 259.967 267.555 258.526 272.418L262.94 272.238L264.831 271.518C272.037 268.545 274.199 260.889 271.767 255.845C269.335 250.801 268.344 254.674 268.254 249.811C273.208 246.568 275.91 252.513 278.162 255.035C282.755 260.079 283.746 259.088 289.961 262.06L278.792 270.077C276 273.049 272.758 282.146 279.153 283.587Z" fill="#217DAE"/>
<path fill-rule="evenodd" clip-rule="evenodd" d="M398.497 276.742L432.995 255.395L428.311 252.873V247.739L574.677 163.972V173.16L640.88 134.699L633.404 130.376L372.196 280.885L381.564 286.289L381.834 286.47L393.273 293.045L398.497 276.742Z" fill="#DAD5CD"/>
<path d="M754.369 188.111L751.938 186.67L655.381 130.916L395.795 280.615L370.215 273.499C321.576 304.033 295.726 325.56 289.151 345.646C289.601 346.637 290.051 347.538 290.502 348.529C290.952 349.429 291.402 350.33 291.943 351.321C291.943 351.411 292.033 351.501 292.033 351.501C292.033 351.501 292.033 351.501 292.033 351.591L292.123 351.681C292.213 351.861 292.303 352.132 292.393 352.312L292.573 352.582C292.663 352.852 292.843 353.032 292.934 353.302L293.024 353.393C293.024 353.393 293.024 353.483 293.114 353.483C293.294 353.753 293.474 354.113 293.564 354.383L293.654 354.563C293.744 354.834 293.924 355.104 294.014 355.284L294.104 355.374C294.104 355.374 294.104 355.464 294.195 355.464V355.554C294.375 355.824 294.465 356.095 294.645 356.365L294.735 356.455C294.915 356.725 295.095 357.085 295.275 357.356V357.446L295.365 357.536L295.456 357.626C295.636 357.896 295.726 358.076 295.906 358.346L295.996 358.527C296.176 358.797 296.356 359.157 296.536 359.427V359.517L296.626 359.607C296.807 359.878 296.897 360.058 297.077 360.328L297.257 360.598C297.437 360.868 297.527 361.139 297.707 361.409L297.797 361.499C297.978 361.769 298.158 362.039 298.338 362.4L298.518 362.67C298.608 362.85 298.788 363.12 298.878 363.3L298.968 363.39L299.058 363.481C299.239 363.751 299.419 364.021 299.599 364.381L299.689 364.561C299.869 364.832 299.959 365.012 300.139 365.282L300.229 365.372C300.229 365.462 300.319 365.462 300.319 365.552L300.409 365.642C300.59 365.912 300.68 366.093 300.86 366.363L300.95 366.543C301.13 366.813 301.31 367.083 301.49 367.354L301.58 367.444L301.67 367.534C301.851 367.714 301.941 367.894 302.121 368.164C302.211 368.254 302.301 368.344 302.301 368.435C302.481 368.705 302.661 368.975 302.841 369.245C302.841 369.245 302.841 369.245 302.841 369.335L302.931 369.425C303.112 369.605 303.202 369.876 303.382 370.056L303.652 370.326C303.832 370.506 303.922 370.776 304.102 370.956L304.192 371.047L304.283 371.137C304.463 371.407 304.643 371.677 304.913 371.947C305.003 372.037 305.093 372.127 305.093 372.217C305.273 372.398 305.363 372.578 305.544 372.758L305.634 372.848C305.634 372.938 305.724 372.938 305.724 373.028C305.724 373.028 305.724 373.028 305.724 373.118C305.904 373.388 306.174 373.659 306.354 373.929C306.444 374.019 306.444 374.109 306.534 374.109C306.714 374.289 306.895 374.559 307.075 374.74C307.075 374.74 307.075 374.83 307.165 374.83C307.165 374.92 307.255 374.92 307.255 375.01L307.345 375.1C307.525 375.28 307.615 375.46 307.795 375.64C307.885 375.73 307.975 375.82 308.066 375.91C308.246 376.181 308.516 376.361 308.696 376.631C308.696 376.631 308.696 376.631 308.696 376.721L308.786 376.811C308.786 376.901 308.876 376.901 308.876 376.991C309.056 377.171 309.146 377.352 309.327 377.532C309.417 377.622 309.507 377.712 309.597 377.892C309.777 378.072 309.957 378.252 310.137 378.522L310.227 378.613C310.317 378.703 310.317 378.703 310.407 378.793L310.497 378.883C310.678 379.063 310.858 379.243 311.038 379.423C311.128 379.513 311.218 379.603 311.308 379.693C311.488 379.874 311.578 380.054 311.758 380.144L311.849 380.234L311.939 380.324C312.119 380.594 312.389 380.774 312.569 381.045C312.659 381.135 312.749 381.225 312.839 381.315C313.019 381.495 313.11 381.585 313.29 381.765L313.38 381.855C313.47 381.945 313.47 381.945 313.56 382.035L313.65 382.125C313.83 382.305 314.01 382.486 314.19 382.666C314.28 382.756 314.461 382.936 314.551 383.026C314.731 383.206 314.911 383.386 315.091 383.566C315.091 383.566 315.091 383.566 315.181 383.657C315.271 383.747 315.271 383.747 315.361 383.837L315.451 383.927C315.632 384.107 315.812 384.197 315.902 384.377C315.992 384.467 316.082 384.557 316.172 384.647C316.442 384.827 316.622 385.098 316.893 385.278L316.983 385.368C317.073 385.458 317.073 385.458 317.163 385.548C317.343 385.728 317.523 385.818 317.613 385.998C317.703 386.089 317.883 386.179 317.973 386.269C318.154 386.449 318.334 386.539 318.514 386.719L318.604 386.809C318.694 386.899 318.694 386.899 318.784 386.989L318.874 387.079C319.054 387.259 319.234 387.44 319.505 387.62C319.595 387.71 319.775 387.8 319.865 387.89C320.045 387.98 320.225 388.16 320.315 388.25C320.405 388.25 320.405 388.34 320.495 388.34C320.585 388.34 320.585 388.43 320.676 388.43C320.676 388.43 320.676 388.43 320.766 388.43C321.036 388.61 321.306 388.791 321.486 389.061C321.576 389.151 321.756 389.241 321.846 389.331C322.027 389.421 322.207 389.601 322.387 389.691L322.477 389.781C322.567 389.781 322.567 389.871 322.657 389.871L322.747 389.962C322.927 390.052 323.107 390.232 323.288 390.322C323.378 390.412 323.558 390.502 323.648 390.592C323.918 390.772 324.098 390.952 324.368 391.132C324.368 391.132 324.368 391.132 324.459 391.132C324.549 391.132 324.549 391.223 324.639 391.223C324.729 391.223 324.729 391.313 324.819 391.313C324.999 391.403 325.179 391.583 325.359 391.673C325.449 391.763 325.629 391.853 325.72 391.943C325.99 392.123 326.26 392.303 326.53 392.484C332.745 396.537 339.681 399.779 347.427 401.941C386.067 412.66 436.237 398.608 465.42 381.765L745.542 219.456C748.245 214.412 750.316 209.188 751.667 203.874C751.667 203.784 751.667 203.784 751.667 203.694C752.028 202.523 752.298 201.262 752.568 200.001C752.568 199.911 752.568 199.911 752.568 199.821C752.838 198.56 753.108 197.299 753.289 196.038C753.289 195.948 753.289 195.948 753.289 195.858C753.469 194.597 753.649 193.336 753.829 192.075V191.985C754.009 190.814 754.099 189.643 754.189 188.472C754.369 188.382 754.369 188.292 754.369 188.111Z" fill="#205A91"/>
<path fill-rule="evenodd" clip-rule="evenodd" d="M565.76 30.6666L543.692 17.9666L541.801 18.8673L564.049 31.6574L565.76 30.6666Z" fill="#DFDCD8"/>
<path fill-rule="evenodd" clip-rule="evenodd" d="M565.76 30.6666L564.049 31.6574V34.1794L565.76 33.1886V30.6666Z" fill="#9B9B9B"/>
<path fill-rule="evenodd" clip-rule="evenodd" d="M564.049 34.1794L541.801 21.2992V18.8673L564.049 31.6575V34.1794Z" fill="#C8C8C8"/>
<path fill-rule="evenodd" clip-rule="evenodd" d="M633.764 116.415L360.307 274.04L421.195 339.612C421.195 339.612 472.716 326.551 475.058 330.605C477.4 334.658 730.32 172.169 730.32 172.169L633.764 116.415Z" fill="white"/>
<path fill-rule="evenodd" clip-rule="evenodd" d="M267.533 331.145C274.109 311.059 299.959 289.532 348.598 258.998L377.511 267.014L270.236 334.478L267.533 331.145Z" fill="white"/>
<path fill-rule="evenodd" clip-rule="evenodd" d="M268.884 333.937C275.46 313.851 301.13 292.144 349.769 261.61L375.259 268.815L273.838 335.738L268.884 333.937Z" fill="#9B9B9B"/>
<path fill-rule="evenodd" clip-rule="evenodd" d="M636.196 117.856L362.739 275.481L423.627 341.053C423.627 341.053 475.148 327.992 477.49 332.046C479.832 336.099 732.752 173.61 732.752 173.61L636.196 117.856Z" fill="#EEECE8"/>
<path fill-rule="evenodd" clip-rule="evenodd" d="M446.145 323.579L351.21 268.815C316.893 290.343 290.412 313.221 270.326 337.09L317.343 363.39L390.751 361.229L446.145 323.579Z" fill="white"/>
<path fill-rule="evenodd" clip-rule="evenodd" d="M732.752 173.52C731.852 184.419 729.33 194.957 723.925 204.865L443.983 367.714C414.8 384.557 364.63 398.608 325.99 387.89C298.338 380.234 281.494 359.067 270.236 336.729C328.332 356.905 385.797 352.852 450.378 321.417L472.806 324.75L732.752 173.52Z" fill="#B4474A"/>
<path fill-rule="evenodd" clip-rule="evenodd" d="M728.699 171.178L732.752 173.52C732.302 177.213 731.041 180.996 730.05 184.599L452.09 347.538C401.92 376.721 344.905 384.828 305.093 373.839C304.823 373.659 304.553 373.479 304.283 373.298C304.192 373.208 304.012 373.118 303.922 373.028C303.742 372.938 303.562 372.758 303.382 372.668C303.292 372.578 303.112 372.488 303.022 372.398C302.751 372.218 302.481 372.037 302.301 371.857C302.211 371.767 302.031 371.677 301.941 371.587C301.761 371.497 301.58 371.317 301.4 371.227C301.31 371.137 301.13 371.047 301.04 370.957C300.86 370.867 300.68 370.686 300.5 370.596C300.409 370.506 300.229 370.416 300.139 370.326C299.869 370.146 299.599 369.966 299.419 369.696C299.329 369.605 299.148 369.515 299.058 369.425C298.878 369.335 298.698 369.155 298.608 369.065C298.518 368.975 298.338 368.885 298.248 368.795C298.068 368.615 297.887 368.435 297.617 368.254C297.437 368.164 297.347 367.984 297.167 367.894C296.987 367.714 296.807 367.624 296.626 367.444C296.536 367.354 296.356 367.264 296.266 367.174C296.086 366.993 295.906 366.903 295.816 366.723C295.726 366.633 295.636 366.543 295.456 366.453C295.185 366.273 295.005 366.003 294.735 365.822C294.645 365.732 294.555 365.642 294.465 365.552C294.285 365.372 294.104 365.282 294.014 365.102C293.924 365.012 293.834 364.922 293.654 364.832C293.474 364.652 293.294 364.471 293.114 364.291C293.024 364.201 292.843 364.021 292.753 363.931C292.573 363.751 292.393 363.571 292.213 363.391C292.123 363.3 292.033 363.21 291.853 363.03C291.673 362.85 291.582 362.76 291.402 362.58C291.312 362.49 291.222 362.4 291.132 362.31C290.862 362.039 290.682 361.859 290.502 361.589C290.412 361.499 290.321 361.409 290.231 361.319C290.051 361.139 289.961 360.959 289.781 360.869C289.691 360.778 289.601 360.688 289.511 360.598C289.331 360.418 289.151 360.238 288.97 360.058C288.88 359.968 288.79 359.788 288.7 359.698C288.52 359.518 288.34 359.337 288.16 359.067C288.07 358.977 287.98 358.887 287.89 358.707C287.709 358.527 287.619 358.347 287.439 358.166C287.349 358.076 287.259 357.986 287.169 357.896C286.989 357.626 286.719 357.446 286.538 357.176C286.448 357.086 286.358 356.995 286.268 356.905C286.088 356.725 285.998 356.545 285.818 356.365C285.728 356.275 285.638 356.185 285.548 356.005C285.368 355.825 285.187 355.554 285.007 355.374C284.917 355.284 284.917 355.194 284.827 355.194C284.647 354.924 284.377 354.654 284.197 354.383C284.107 354.293 284.016 354.203 283.926 354.113C283.746 353.933 283.656 353.753 283.476 353.573C283.386 353.483 283.296 353.393 283.296 353.303C283.116 353.032 282.936 352.762 282.665 352.492C282.575 352.402 282.575 352.312 282.485 352.222C282.305 352.042 282.215 351.771 282.035 351.591L281.765 351.321C281.585 351.141 281.494 350.871 281.314 350.69C281.224 350.6 281.224 350.51 281.134 350.51C280.954 350.24 280.774 349.97 280.594 349.7C280.504 349.61 280.414 349.52 280.414 349.429C280.233 349.249 280.143 349.069 279.963 348.799C279.873 348.709 279.873 348.619 279.783 348.529C279.603 348.259 279.423 347.988 279.243 347.718L279.153 347.538C278.972 347.268 278.882 347.088 278.702 346.817L278.522 346.547C278.342 346.277 278.252 346.097 278.072 345.827L277.982 345.646C277.802 345.376 277.621 345.106 277.441 344.746L277.261 344.476C277.081 344.295 276.991 344.025 276.901 343.845L276.721 343.575C276.541 343.305 276.36 343.034 276.18 342.674L276.09 342.494C275.91 342.224 275.82 341.954 275.64 341.683L275.46 341.413C275.28 341.143 275.189 340.963 275.009 340.693L274.919 340.512C274.739 340.242 274.559 339.882 274.379 339.612L274.289 339.432C274.109 339.161 274.019 338.981 273.838 338.711L273.658 338.441C273.478 338.171 270.596 337.27 270.416 337C269.335 335.018 268.614 333.217 267.714 331.325C325.81 351.501 386.067 348.349 450.559 317.004L472.986 320.336L728.699 171.178Z" fill="white"/>
<path fill-rule="evenodd" clip-rule="evenodd" d="M732.752 173.52C732.302 178.834 731.491 184.148 730.14 189.282L452.09 352.222C401.92 381.405 344.905 389.511 305.093 378.522C304.823 378.342 304.553 378.162 304.283 377.982C304.192 377.892 304.012 377.802 303.922 377.712C303.742 377.622 303.562 377.442 303.382 377.352C303.292 377.261 303.112 377.171 303.022 377.081C302.751 376.901 302.481 376.721 302.301 376.541C302.211 376.451 302.031 376.361 301.941 376.271C301.761 376.181 301.58 376 301.4 375.91C301.31 375.82 301.13 375.73 301.04 375.64C300.86 375.55 300.68 375.37 300.5 375.28C300.409 375.19 300.229 375.1 300.139 375.01C299.869 374.83 299.599 374.649 299.419 374.379C299.329 374.289 299.148 374.199 299.058 374.109C298.878 374.019 298.698 373.839 298.608 373.749C298.518 373.659 298.338 373.569 298.248 373.478C298.068 373.298 297.887 373.118 297.617 372.938C297.437 372.848 297.347 372.668 297.167 372.578C296.987 372.398 296.807 372.308 296.626 372.127C296.536 372.037 296.356 371.947 296.266 371.857C296.086 371.677 295.906 371.587 295.816 371.407C295.726 371.317 295.636 371.227 295.456 371.137C295.185 370.956 295.005 370.686 294.735 370.506C294.645 370.416 294.555 370.326 294.465 370.236C294.285 370.056 294.104 369.966 294.014 369.786C293.924 369.695 293.834 369.605 293.654 369.515C293.474 369.335 293.294 369.155 293.114 368.975C293.024 368.885 292.843 368.705 292.753 368.615C292.573 368.434 292.393 368.254 292.213 368.074C292.123 367.984 292.033 367.894 291.853 367.714C291.673 367.534 291.582 367.444 291.402 367.263C291.312 367.173 291.222 367.083 291.132 366.993C290.862 366.723 290.682 366.543 290.502 366.273C290.412 366.183 290.321 366.093 290.231 366.003C290.051 365.822 289.961 365.642 289.781 365.552C289.691 365.462 289.601 365.372 289.511 365.282C289.331 365.102 289.151 364.922 288.97 364.742C288.88 364.651 288.79 364.471 288.7 364.381C288.52 364.201 288.34 364.021 288.16 363.751C288.07 363.661 287.98 363.571 287.89 363.39C287.709 363.21 287.619 363.03 287.439 362.85C287.349 362.76 287.259 362.67 287.169 362.58C286.989 362.31 286.719 362.129 286.538 361.859C286.448 361.769 286.358 361.679 286.268 361.589C286.088 361.409 285.998 361.229 285.818 361.049C285.728 360.959 285.638 360.868 285.548 360.688C285.368 360.508 285.187 360.238 285.007 360.058C284.917 359.968 284.917 359.878 284.827 359.878C284.647 359.607 284.377 359.337 284.197 359.067C284.107 358.977 284.016 358.887 283.926 358.797C283.746 358.617 283.656 358.436 283.476 358.256C283.386 358.166 283.296 358.076 283.296 357.986C283.116 357.716 282.936 357.446 282.665 357.176C282.575 357.085 282.575 356.995 282.485 356.905C282.305 356.725 282.215 356.455 282.035 356.275L281.765 356.005C281.585 355.824 281.494 355.554 281.314 355.374C281.224 355.284 281.224 355.194 281.134 355.194C280.954 354.924 280.774 354.654 280.594 354.383C280.504 354.293 280.414 354.203 280.414 354.113C280.233 353.933 280.143 353.753 279.963 353.483C279.873 353.393 279.873 353.302 279.783 353.212C279.603 352.942 279.423 352.672 279.243 352.402L279.153 352.222C278.972 351.951 278.882 351.771 278.702 351.501L278.522 351.231C278.342 350.961 278.252 350.78 278.072 350.51L277.982 350.33C277.802 350.06 277.621 349.79 277.441 349.429L277.261 349.159C277.081 348.979 276.991 348.709 276.901 348.529L276.721 348.258C276.541 347.988 276.36 347.718 276.18 347.358L276.09 347.178C275.91 346.907 275.82 346.637 275.64 346.367L275.46 346.097C275.28 345.826 275.189 345.646 275.009 345.376L274.919 345.196C274.739 344.926 274.559 344.565 274.379 344.295L274.289 344.115C274.109 343.845 274.019 343.665 273.838 343.395L273.658 343.124C273.478 342.854 273.298 342.494 273.118 342.224L273.028 342.134C272.848 341.863 272.758 341.593 272.577 341.323L272.397 341.053C272.217 340.783 272.127 340.512 272.037 340.332L271.947 340.152C271.767 339.882 271.587 339.522 271.497 339.251L271.406 339.071C271.316 338.801 271.136 338.621 271.046 338.351L270.866 338.08C270.686 337.81 270.506 337.45 270.416 337.18C328.512 357.356 385.977 353.302 450.559 321.868L472.986 325.2L732.752 173.52Z" fill="#9B9B9B"/>
<path fill-rule="evenodd" clip-rule="evenodd" d="M732.752 173.52L633.764 116.415L630.972 118.036L729.96 175.141L732.752 173.52Z" fill="white"/>
<path fill-rule="evenodd" clip-rule="evenodd" d="M612.417 115.064L525.408 165.323V181.356L612.417 131.096V115.064Z" fill="#9B9B9B"/>
<path fill-rule="evenodd" clip-rule="evenodd" d="M608.364 112.722L521.355 162.982L525.408 165.323L612.417 115.064L608.364 112.722Z" fill="white"/>
<path fill-rule="evenodd" clip-rule="evenodd" d="M633.404 119.387L725.907 172.799L716.449 178.294L633.404 130.376V119.387Z" fill="#C8C8C8"/>
<path fill-rule="evenodd" clip-rule="evenodd" d="M633.404 119.387L362.739 275.391L372.196 280.885L633.404 130.376V119.387Z" fill="#9B9B9B"/>
<path fill-rule="evenodd" clip-rule="evenodd" d="M574.677 23.2808L568.912 26.6134V212.341L574.677 209.008V23.2808Z" fill="#9B9B9B"/>
<path fill-rule="evenodd" clip-rule="evenodd" d="M574.677 23.2808L568.912 19.9481L563.148 23.2808L568.912 26.6134L574.677 23.2808Z" fill="#DFDCD8"/>
<path fill-rule="evenodd" clip-rule="evenodd" d="M563.148 23.2808L568.912 26.6134V212.341L563.148 209.008V23.2808Z" fill="#C8C8C8"/>
<path fill-rule="evenodd" clip-rule="evenodd" d="M428.311 195.137L503.43 238.461L481.363 308.897L406.333 265.573L428.311 195.137Z" fill="white"/>
<path fill-rule="evenodd" clip-rule="evenodd" d="M590.349 188.292L503.43 238.461L481.363 308.897L590.349 246.027V188.292Z" fill="#9B9B9B"/>
<path fill-rule="evenodd" clip-rule="evenodd" d="M590.349 188.292L515.23 144.967L428.311 195.137L503.43 238.461L590.349 188.292Z" fill="#E8E5E0"/>
<path fill-rule="evenodd" clip-rule="evenodd" d="M585.846 200.902L583.414 202.343V214.322L510.906 256.205V259.088L585.846 215.853V200.902Z" fill="#C8C8C8"/>
<path fill-rule="evenodd" clip-rule="evenodd" d="M585.846 200.902L510.906 244.226V259.088L585.846 215.853V200.902Z" fill="#373332"/>
<path fill-rule="evenodd" clip-rule="evenodd" d="M585.846 200.902L583.414 202.343V214.322L585.846 215.853V200.902Z" fill="#C8C8C8"/>
<path fill-rule="evenodd" clip-rule="evenodd" d="M583.414 214.322L510.906 256.206V259.088L585.846 215.853L583.414 214.322Z" fill="#DFDCD8"/>
<path fill-rule="evenodd" clip-rule="evenodd" d="M551.529 220.807L549.097 222.159V234.138L551.529 235.669V220.807Z" fill="#C8C8C8"/>
<path fill-rule="evenodd" clip-rule="evenodd" d="M551.529 219.366L553.87 217.925V235.759L551.529 237.291V219.366Z" fill="#9B9B9B"/>
<path fill-rule="evenodd" clip-rule="evenodd" d="M429.302 205.585L495.864 244.136L485.957 276.742L419.304 238.191L429.302 205.585Z" fill="#373332"/>
<path fill-rule="evenodd" clip-rule="evenodd" d="M429.302 205.585L431.283 206.756L422.186 236.57L419.304 238.191L429.302 205.585Z" fill="#9B9B9B"/>
<path fill-rule="evenodd" clip-rule="evenodd" d="M422.186 236.57L486.767 273.95L485.957 276.742L419.304 238.191L422.186 236.57Z" fill="#DFDCD8"/>
<path fill-rule="evenodd" clip-rule="evenodd" d="M461.457 224.5L463.529 225.671L454.432 255.395L451.549 257.016L461.457 224.5Z" fill="#9B9B9B"/>
<path fill-rule="evenodd" clip-rule="evenodd" d="M461.908 223.059L459.836 221.888L449.568 255.755L451.549 257.016L461.908 223.059Z" fill="#C8C8C8"/>
<path fill-rule="evenodd" clip-rule="evenodd" d="M595.123 47.6001L572.966 34.8099L571.074 35.7107L593.412 48.5909L595.123 47.6001Z" fill="#DFDCD8"/>
<path fill-rule="evenodd" clip-rule="evenodd" d="M595.123 47.6001L593.412 48.5909V51.1129L595.123 50.1221V47.6001Z" fill="#9B9B9B"/>
<path fill-rule="evenodd" clip-rule="evenodd" d="M593.412 51.1128L571.074 38.2326V35.7106L593.412 48.5908V51.1128Z" fill="#C8C8C8"/>
<path fill-rule="evenodd" clip-rule="evenodd" d="M604.31 232.697C604.31 235.759 606.202 235.759 606.832 235.309C607.463 234.949 607.373 233.508 607.373 233.508C607.373 233.508 600.798 165.504 637.997 154.425C638.448 154.245 638.898 154.065 637.907 154.245C631.062 155.506 603.32 164.963 604.31 232.697Z" fill="#110E10"/>
<path fill-rule="evenodd" clip-rule="evenodd" d="M606.112 234.949C606.112 231.256 605.932 227.563 605.842 223.78C605.842 219.997 606.022 216.304 606.202 212.521C606.382 209.999 606.652 207.477 607.013 204.955C606.923 204.234 608.724 190.904 610.615 185.409C612.507 179.915 614.759 174.601 618.001 169.827V169.737C620.343 166.044 622.955 162.801 626.378 160.099C627.999 158.838 629.801 157.127 631.692 156.406H631.782C632.503 155.956 633.223 155.596 634.034 155.235C624.036 159.018 603.23 173.97 604.13 232.697C604.13 234.949 605.211 235.579 606.022 235.489C606.112 235.309 606.112 235.129 606.112 234.949Z" fill="#3E3A39"/>
<path fill-rule="evenodd" clip-rule="evenodd" d="M602.959 205.675C602.959 205.675 607.823 205.135 609.535 205.946C611.246 206.756 610.796 208.738 609.715 209.188C608.634 209.639 605.031 210.359 603.049 210.269L602.959 205.675Z" fill="#1D1E1E"/>
<path fill-rule="evenodd" clip-rule="evenodd" d="M606.923 206.216H607.013C607.373 206.396 607.823 206.576 608.184 206.756C608.634 207.026 608.994 207.297 609.354 207.657C609.715 208.017 609.985 208.378 610.255 208.828C610.886 208.107 610.886 206.666 609.535 205.946C608.634 205.585 607.013 205.495 605.571 205.495C606.022 205.765 606.472 205.946 606.923 206.216Z" fill="#110E10"/>
<path fill-rule="evenodd" clip-rule="evenodd" d="M605.571 208.287C605.391 209.548 604.22 210.449 602.959 210.269C601.698 210.089 600.798 208.918 600.978 207.657C601.158 206.396 602.329 205.495 603.59 205.675C604.851 205.856 605.752 207.026 605.571 208.287Z" fill="#1D1E1E"/>
<path fill-rule="evenodd" clip-rule="evenodd" d="M605.481 208.287C605.301 209.458 604.22 210.359 603.049 210.179C601.878 209.999 600.978 208.918 601.158 207.747C601.338 206.576 602.419 205.675 603.59 205.856C604.761 205.946 605.571 207.026 605.481 208.287Z" fill="#444243"/>
<path fill-rule="evenodd" clip-rule="evenodd" d="M604.851 208.197C604.761 209.098 603.95 209.639 603.049 209.548C602.149 209.458 601.608 208.648 601.698 207.747C601.788 206.846 602.599 206.306 603.5 206.396C604.401 206.486 604.941 207.297 604.851 208.197Z" fill="#1D1E1E"/>
<path fill-rule="evenodd" clip-rule="evenodd" d="M604.581 208.107C604.491 208.828 603.86 209.278 603.14 209.188C602.419 209.098 601.969 208.468 602.059 207.747C602.149 207.027 602.779 206.576 603.5 206.666C604.13 206.846 604.671 207.477 604.581 208.107Z" fill="#444243"/>
<path fill-rule="evenodd" clip-rule="evenodd" d="M602.419 208.107C602.509 207.567 602.959 207.207 603.5 207.207C603.77 207.207 603.95 207.387 604.13 207.477C603.95 207.207 603.68 206.936 603.32 206.936C602.779 206.846 602.239 207.297 602.239 207.837C602.239 208.107 602.329 208.468 602.509 208.648C602.419 208.468 602.329 208.288 602.419 208.107Z" fill="#727273"/>
<path fill-rule="evenodd" clip-rule="evenodd" d="M604.581 206.396C604.581 206.396 604.491 206.396 604.401 206.306C604.311 206.216 604.13 206.126 603.95 206.126C603.77 206.036 603.5 206.036 603.23 206.036C602.959 206.036 602.599 206.126 602.329 206.306C602.149 206.396 602.059 206.486 601.969 206.576C601.879 206.666 601.788 206.756 601.698 206.936C601.518 207.207 601.428 207.387 601.338 207.567C601.248 207.747 601.248 207.927 601.248 208.107C601.248 208.197 601.248 208.288 601.248 208.288C601.248 208.288 601.248 208.197 601.158 208.107C601.158 208.017 601.068 207.837 601.158 207.567C601.158 207.387 601.338 207.117 601.518 206.846C601.608 206.756 601.698 206.576 601.788 206.486C601.879 206.396 602.059 206.306 602.239 206.216C602.509 206.036 602.869 205.946 603.23 205.946C603.5 205.946 603.77 206.036 604.04 206.126C604.22 206.216 604.401 206.306 604.491 206.396C604.581 206.306 604.581 206.396 604.581 206.396Z" fill="#727273"/>
<path fill-rule="evenodd" clip-rule="evenodd" d="M610.165 207.117L612.057 207.207L612.507 205.225L613.228 205.405L612.777 208.017L610.255 208.107L610.165 207.117Z" fill="#110E10"/>
<path fill-rule="evenodd" clip-rule="evenodd" d="M614.849 205.765C614.759 206.036 614.488 206.216 614.218 206.216L612.417 205.856C612.147 205.765 611.967 205.495 611.967 205.225C612.057 204.955 612.327 204.775 612.597 204.775L614.398 205.135C614.669 205.225 614.939 205.495 614.849 205.765Z" fill="#110E10"/>
<path fill-rule="evenodd" clip-rule="evenodd" d="M611.967 205.315C612.507 205.405 613.047 205.495 613.588 205.585C614.038 205.585 614.399 205.675 614.849 205.675C614.849 205.405 614.669 205.135 614.399 205.135L612.597 204.775C612.327 204.775 612.057 204.955 611.967 205.315Z" fill="#1D1E1E"/>
<path fill-rule="evenodd" clip-rule="evenodd" d="M639.168 153.524L639.078 153.434C638.898 153.704 638.628 153.884 638.357 153.974C638.087 154.064 637.817 153.974 637.547 153.884C637.277 153.704 637.187 153.524 637.096 153.254C637.006 152.984 637.096 152.713 637.277 152.443C637.457 152.173 637.727 151.993 637.997 151.903C638.267 151.813 638.538 151.903 638.808 151.993C639.078 152.173 639.168 152.353 639.258 152.623C639.348 152.893 639.258 153.164 639.078 153.434L639.168 153.524L639.258 153.614C639.438 153.344 639.528 152.984 639.438 152.623C639.348 152.263 639.168 151.993 638.898 151.813C638.628 151.632 638.267 151.542 637.907 151.633C637.547 151.723 637.277 151.903 637.096 152.263C636.916 152.533 636.826 152.893 636.916 153.254C637.006 153.614 637.187 153.884 637.457 154.064C637.727 154.245 638.087 154.335 638.448 154.245C638.808 154.155 639.078 153.974 639.258 153.614L639.168 153.524Z" fill="#1D1E1E"/>
<path fill-rule="evenodd" clip-rule="evenodd" d="M625.297 160.91L625.207 160.82C625.027 161.09 624.757 161.27 624.486 161.36C624.216 161.45 623.946 161.36 623.676 161.27C623.406 161.09 623.315 160.91 623.225 160.64C623.135 160.37 623.225 160.099 623.406 159.829C623.586 159.559 623.856 159.379 624.126 159.289C624.396 159.199 624.667 159.289 624.937 159.379C625.207 159.559 625.297 159.739 625.387 160.009C625.477 160.279 625.387 160.55 625.207 160.82L625.297 160.91L625.387 161C625.567 160.73 625.657 160.37 625.567 160.009C625.477 159.649 625.297 159.379 625.027 159.199C624.757 159.018 624.396 158.928 624.036 159.018C623.676 159.109 623.406 159.289 623.225 159.649C623.045 159.919 622.955 160.28 623.045 160.64C623.135 161 623.316 161.27 623.586 161.45C623.856 161.631 624.216 161.721 624.577 161.631C624.937 161.54 625.207 161.36 625.387 161L625.297 160.91Z" fill="#1D1E1E"/>
<path fill-rule="evenodd" clip-rule="evenodd" d="M616.74 171.989L616.65 171.899C616.47 172.169 616.2 172.349 615.93 172.439C615.659 172.529 615.389 172.439 615.119 172.349C614.849 172.169 614.759 171.989 614.669 171.719C614.579 171.448 614.669 171.178 614.849 170.908C615.029 170.638 615.299 170.458 615.569 170.367C615.84 170.277 616.11 170.367 616.38 170.458C616.65 170.638 616.74 170.818 616.83 171.088C616.92 171.358 616.83 171.628 616.65 171.899L616.74 171.989L616.83 172.079C617.011 171.809 617.101 171.448 617.011 171.088C616.92 170.728 616.74 170.457 616.47 170.277C616.2 170.097 615.84 170.007 615.479 170.097C615.119 170.187 614.849 170.367 614.669 170.728C614.489 170.998 614.398 171.358 614.489 171.719C614.579 172.079 614.759 172.349 615.029 172.529C615.299 172.709 615.659 172.799 616.02 172.709C616.38 172.619 616.65 172.439 616.83 172.079L616.74 171.989Z" fill="#1D1E1E"/>
<path fill-rule="evenodd" clip-rule="evenodd" d="M610.525 185.049L610.435 184.959C610.255 185.229 609.985 185.409 609.715 185.499C609.444 185.589 609.174 185.499 608.904 185.409C608.634 185.229 608.544 185.049 608.454 184.779C608.364 184.509 608.454 184.238 608.634 183.968C608.814 183.698 609.084 183.518 609.354 183.428C609.625 183.338 609.895 183.428 610.165 183.518C610.435 183.698 610.525 183.878 610.615 184.148C610.705 184.419 610.615 184.689 610.435 184.959L610.525 185.049L610.615 185.139C610.796 184.869 610.886 184.509 610.796 184.148C610.705 183.788 610.525 183.518 610.255 183.338C609.985 183.158 609.625 183.067 609.264 183.158C608.904 183.248 608.634 183.428 608.454 183.788C608.274 184.058 608.184 184.419 608.274 184.779C608.364 185.139 608.544 185.409 608.814 185.589C609.084 185.77 609.445 185.86 609.805 185.77C610.165 185.68 610.435 185.499 610.615 185.139L610.525 185.049Z" fill="#1D1E1E"/>
<path fill-rule="evenodd" clip-rule="evenodd" d="M606.742 199.28L606.652 199.19C606.472 199.46 606.202 199.641 605.932 199.731C605.662 199.821 605.391 199.731 605.121 199.641C604.851 199.46 604.761 199.28 604.671 199.01C604.581 198.74 604.671 198.47 604.851 198.199C605.031 197.929 605.301 197.749 605.571 197.659C605.842 197.569 606.112 197.659 606.382 197.749C606.652 197.929 606.742 198.109 606.833 198.38C606.923 198.65 606.832 198.92 606.652 199.19L606.742 199.28L606.833 199.37C607.013 199.1 607.103 198.74 607.013 198.38C606.923 198.019 606.742 197.749 606.472 197.569C606.202 197.389 605.842 197.299 605.481 197.389C605.121 197.479 604.851 197.659 604.671 198.019C604.491 198.29 604.401 198.65 604.491 199.01C604.581 199.37 604.761 199.641 605.031 199.821C605.301 200.001 605.662 200.091 606.022 200.001C606.382 199.911 606.652 199.731 606.833 199.37L606.742 199.28Z" fill="#1D1E1E"/>
<path fill-rule="evenodd" clip-rule="evenodd" d="M634.845 215.223C634.845 218.285 636.736 218.285 637.367 217.835C637.997 217.475 637.907 216.034 637.907 216.034C637.907 216.034 631.332 148.03 668.531 136.951C668.982 136.771 669.432 136.591 668.441 136.771C661.596 138.032 633.854 147.489 634.845 215.223Z" fill="#110E10"/>
<path fill-rule="evenodd" clip-rule="evenodd" d="M636.646 217.475C636.646 213.782 636.466 210.089 636.376 206.306C636.376 202.523 636.556 198.83 636.736 195.047C636.916 192.525 637.187 190.003 637.547 187.481C637.457 186.76 639.258 173.43 641.15 167.935C643.041 162.441 645.293 157.127 648.536 152.353V152.263C650.877 148.57 653.489 145.328 656.912 142.625C658.533 141.364 660.335 139.653 662.226 138.932H662.316C663.037 138.482 663.758 138.122 664.568 137.761C654.57 141.544 633.764 156.496 634.665 215.223C634.665 217.475 635.745 218.105 636.556 218.015C636.646 217.835 636.646 217.655 636.646 217.475Z" fill="#3E3A39"/>
<path fill-rule="evenodd" clip-rule="evenodd" d="M633.494 188.202C633.494 188.202 638.357 187.661 640.069 188.472C641.78 189.282 641.33 191.264 640.249 191.714C639.168 192.165 635.565 192.885 633.584 192.795L633.494 188.202Z" fill="#1D1E1E"/>
<path fill-rule="evenodd" clip-rule="evenodd" d="M637.547 188.742H637.637C637.997 188.922 638.448 189.102 638.808 189.282C639.258 189.553 639.618 189.823 639.979 190.183C640.339 190.543 640.609 190.904 640.879 191.354C641.51 190.633 641.51 189.192 640.159 188.472C639.258 188.111 637.637 188.021 636.196 188.021C636.556 188.292 637.006 188.562 637.547 188.742Z" fill="#110E10"/>
<path fill-rule="evenodd" clip-rule="evenodd" d="M636.196 190.814C636.016 192.075 634.845 192.975 633.584 192.795C632.323 192.615 631.422 191.444 631.602 190.183C631.782 188.922 632.953 188.021 634.214 188.202C635.385 188.382 636.286 189.553 636.196 190.814Z" fill="#1D1E1E"/>
<path fill-rule="evenodd" clip-rule="evenodd" d="M636.016 190.814C635.835 191.985 634.755 192.885 633.584 192.705C632.413 192.525 631.512 191.444 631.692 190.273C631.872 189.102 632.953 188.202 634.124 188.382C635.295 188.472 636.196 189.553 636.016 190.814Z" fill="#444243"/>
<path fill-rule="evenodd" clip-rule="evenodd" d="M635.475 190.724C635.385 191.624 634.574 192.165 633.674 192.075C632.773 191.985 632.233 191.174 632.323 190.273C632.413 189.372 633.223 188.832 634.124 188.922C634.935 189.012 635.565 189.823 635.475 190.724Z" fill="#1D1E1E"/>
<path fill-rule="evenodd" clip-rule="evenodd" d="M635.115 190.633C635.025 191.354 634.394 191.804 633.674 191.714C632.953 191.624 632.503 190.994 632.593 190.273C632.683 189.553 633.313 189.102 634.034 189.192C634.755 189.372 635.205 190.003 635.115 190.633Z" fill="#444243"/>
<path fill-rule="evenodd" clip-rule="evenodd" d="M632.953 190.634C633.043 190.093 633.494 189.733 634.034 189.733C634.304 189.733 634.484 189.913 634.665 190.003C634.484 189.733 634.214 189.463 633.854 189.463C633.313 189.373 632.773 189.823 632.773 190.363C632.773 190.634 632.863 190.994 633.043 191.174C632.953 190.994 632.953 190.814 632.953 190.634Z" fill="#727273"/>
<path fill-rule="evenodd" clip-rule="evenodd" d="M635.205 188.922C635.205 188.922 635.115 188.922 635.025 188.832C634.935 188.742 634.755 188.652 634.574 188.652C634.394 188.562 634.124 188.562 633.854 188.562C633.584 188.562 633.223 188.652 632.953 188.832C632.773 188.922 632.683 189.012 632.593 189.102C632.503 189.192 632.413 189.282 632.323 189.463C632.143 189.733 632.052 189.913 631.962 190.093C631.872 190.273 631.872 190.453 631.872 190.634C631.872 190.724 631.872 190.814 631.872 190.814C631.872 190.814 631.872 190.724 631.782 190.634C631.782 190.543 631.692 190.363 631.782 190.093C631.782 189.913 631.962 189.643 632.143 189.373C632.233 189.282 632.323 189.102 632.413 189.012C632.503 188.922 632.683 188.832 632.863 188.742C633.133 188.562 633.494 188.472 633.854 188.472C634.124 188.472 634.394 188.562 634.665 188.652C634.845 188.742 635.025 188.832 635.115 188.922C635.115 188.832 635.205 188.922 635.205 188.922Z" fill="#727273"/>
<path fill-rule="evenodd" clip-rule="evenodd" d="M640.789 189.643L642.591 189.733L643.041 187.751L643.852 187.931L643.311 190.543L640.789 190.634V189.643Z" fill="#110E10"/>
<path fill-rule="evenodd" clip-rule="evenodd" d="M645.383 188.292C645.293 188.562 645.023 188.742 644.753 188.742L642.951 188.382C642.681 188.292 642.501 188.021 642.501 187.751C642.591 187.481 642.861 187.301 643.131 187.301L644.933 187.661C645.293 187.751 645.473 188.021 645.383 188.292Z" fill="#110E10"/>
<path fill-rule="evenodd" clip-rule="evenodd" d="M642.591 187.931C643.131 188.021 643.672 188.112 644.212 188.202C644.663 188.202 645.023 188.292 645.473 188.292C645.473 188.021 645.293 187.751 645.023 187.751L643.221 187.391C642.861 187.301 642.591 187.571 642.591 187.931C642.591 187.841 642.591 187.841 642.591 187.931Z" fill="#1D1E1E"/>
<path fill-rule="evenodd" clip-rule="evenodd" d="M669.702 136.05L669.612 135.96C669.432 136.23 669.162 136.41 668.892 136.5C668.621 136.591 668.351 136.5 668.081 136.41C667.811 136.23 667.721 136.05 667.631 135.78C667.541 135.51 667.631 135.24 667.811 134.969C667.991 134.699 668.261 134.519 668.531 134.429C668.802 134.339 669.072 134.429 669.342 134.519C669.612 134.699 669.702 134.879 669.792 135.149C669.882 135.42 669.792 135.69 669.612 135.96L669.702 136.05L669.792 136.14C669.972 135.87 670.063 135.51 669.972 135.149C669.882 134.789 669.702 134.519 669.432 134.339C669.162 134.159 668.802 134.069 668.441 134.159C668.081 134.249 667.811 134.429 667.631 134.789C667.451 135.059 667.36 135.42 667.451 135.78C667.541 136.14 667.721 136.41 667.991 136.591C668.261 136.771 668.621 136.861 668.982 136.771C669.342 136.681 669.612 136.501 669.792 136.14L669.702 136.05Z" fill="#1D1E1E"/>
<path fill-rule="evenodd" clip-rule="evenodd" d="M655.831 143.436L655.741 143.346C655.561 143.616 655.291 143.796 655.021 143.886C654.751 143.977 654.48 143.886 654.21 143.796C653.94 143.616 653.85 143.436 653.76 143.166C653.67 142.896 653.76 142.625 653.94 142.355C654.12 142.085 654.39 141.905 654.66 141.815C654.931 141.725 655.201 141.815 655.471 141.905C655.741 142.085 655.831 142.265 655.921 142.535C656.012 142.806 655.921 143.076 655.741 143.346L655.831 143.436L655.921 143.526C656.102 143.256 656.192 142.896 656.102 142.535C656.011 142.175 655.831 141.905 655.561 141.725C655.291 141.545 654.931 141.455 654.57 141.545C654.21 141.635 653.94 141.815 653.76 142.175C653.58 142.445 653.489 142.806 653.58 143.166C653.67 143.526 653.85 143.796 654.12 143.977C654.39 144.157 654.75 144.247 655.111 144.157C655.471 144.067 655.741 143.886 655.921 143.526L655.831 143.436Z" fill="#1D1E1E"/>
<path fill-rule="evenodd" clip-rule="evenodd" d="M647.365 154.515L647.275 154.425C647.094 154.695 646.824 154.875 646.554 154.965C646.284 155.055 646.014 154.965 645.743 154.875C645.473 154.695 645.383 154.515 645.293 154.245C645.203 153.974 645.293 153.704 645.473 153.434C645.653 153.164 645.923 152.984 646.194 152.894C646.464 152.804 646.734 152.894 647.004 152.984C647.275 153.164 647.365 153.344 647.455 153.614C647.545 153.884 647.455 154.155 647.275 154.425L647.365 154.515L647.455 154.605C647.635 154.335 647.725 153.974 647.635 153.614C647.545 153.254 647.365 152.984 647.094 152.803C646.824 152.623 646.464 152.533 646.104 152.623C645.743 152.713 645.473 152.894 645.293 153.254C645.113 153.524 645.023 153.884 645.113 154.245C645.203 154.605 645.383 154.875 645.653 155.055C645.923 155.235 646.284 155.325 646.644 155.235C647.004 155.145 647.275 154.965 647.455 154.605L647.365 154.515Z" fill="#1D1E1E"/>
<path fill-rule="evenodd" clip-rule="evenodd" d="M641.06 167.575L640.97 167.485C640.789 167.755 640.519 167.936 640.249 168.026C639.979 168.116 639.709 168.026 639.438 167.936C639.168 167.755 639.078 167.575 638.988 167.305C638.898 167.035 638.988 166.765 639.168 166.494C639.348 166.224 639.618 166.044 639.889 165.954C640.159 165.864 640.429 165.954 640.699 166.044C640.97 166.224 641.06 166.404 641.15 166.675C641.24 166.945 641.15 167.215 640.97 167.485L641.06 167.575L641.15 167.665C641.33 167.395 641.42 167.035 641.33 166.675C641.24 166.314 641.06 166.044 640.789 165.864C640.519 165.684 640.159 165.594 639.799 165.684C639.438 165.774 639.168 165.954 638.988 166.314C638.808 166.584 638.718 166.945 638.808 167.305C638.898 167.665 639.078 167.936 639.348 168.116C639.618 168.296 639.979 168.386 640.339 168.296C640.699 168.206 640.97 168.026 641.15 167.665L641.06 167.575Z" fill="#1D1E1E"/>
<path fill-rule="evenodd" clip-rule="evenodd" d="M637.277 181.806L637.186 181.716C637.006 181.987 636.736 182.167 636.466 182.257C636.196 182.347 635.926 182.257 635.655 182.167C635.385 181.987 635.295 181.806 635.205 181.536C635.115 181.266 635.205 180.996 635.385 180.726C635.565 180.455 635.835 180.275 636.106 180.185C636.376 180.095 636.646 180.185 636.916 180.275C637.186 180.455 637.277 180.636 637.367 180.906C637.457 181.176 637.367 181.446 637.186 181.716L637.277 181.806L637.367 181.897C637.547 181.626 637.637 181.266 637.547 180.906C637.457 180.545 637.277 180.275 637.006 180.095C636.736 179.915 636.376 179.825 636.016 179.915C635.655 180.005 635.385 180.185 635.205 180.545C635.025 180.816 634.935 181.176 635.025 181.536C635.115 181.897 635.295 182.167 635.565 182.347C635.835 182.527 636.196 182.617 636.556 182.527C636.916 182.437 637.186 182.257 637.367 181.897L637.277 181.806Z" fill="#1D1E1E"/>
<path fill-rule="evenodd" clip-rule="evenodd" d="M665.379 197.749C665.379 200.812 667.27 200.812 667.901 200.361C668.531 200.001 668.441 198.56 668.441 198.56C668.441 198.56 661.866 130.556 699.066 119.477C699.516 119.297 699.966 119.117 698.975 119.297C692.22 120.558 664.478 130.015 665.379 197.749Z" fill="#110E10"/>
<path fill-rule="evenodd" clip-rule="evenodd" d="M667.27 200.001C667.27 196.308 667.09 192.615 667 188.832C667 185.049 667.18 181.356 667.36 177.573C667.541 175.051 667.811 172.529 668.171 170.007C668.081 169.287 669.883 155.956 671.774 150.462C673.665 144.967 675.917 139.653 679.16 134.879V134.789C681.502 131.096 684.114 127.854 687.536 125.152C689.158 123.891 690.959 122.179 692.851 121.459H692.941C693.661 121.008 694.382 120.648 695.193 120.288C685.195 124.071 664.388 139.023 665.289 197.749C665.289 200.001 666.37 200.631 667.18 200.541C667.27 200.361 667.27 200.181 667.27 200.001Z" fill="#3E3A39"/>
<path fill-rule="evenodd" clip-rule="evenodd" d="M664.118 170.728C664.118 170.728 668.982 170.187 670.693 170.998C672.404 171.809 671.954 173.79 670.873 174.241C669.792 174.691 666.19 175.411 664.208 175.321L664.118 170.728Z" fill="#1D1E1E"/>
<path fill-rule="evenodd" clip-rule="evenodd" d="M668.081 171.268H668.171C668.531 171.448 668.982 171.628 669.342 171.809C669.792 172.079 670.153 172.349 670.513 172.709C670.873 173.07 671.143 173.43 671.414 173.88C672.044 173.16 672.044 171.719 670.693 170.998C669.792 170.638 668.171 170.548 666.73 170.548C667.09 170.818 667.631 171.088 668.081 171.268Z" fill="#110E10"/>
<path fill-rule="evenodd" clip-rule="evenodd" d="M666.73 173.34C666.55 174.601 665.379 175.501 664.118 175.321C662.857 175.141 661.956 173.97 662.136 172.709C662.316 171.448 663.487 170.548 664.748 170.728C666.009 170.908 666.91 172.079 666.73 173.34Z" fill="#1D1E1E"/>
<path fill-rule="evenodd" clip-rule="evenodd" d="M666.64 173.34C666.46 174.511 665.379 175.411 664.208 175.231C663.037 175.051 662.136 173.97 662.316 172.799C662.497 171.628 663.577 170.728 664.748 170.908C665.919 170.998 666.73 172.079 666.64 173.34Z" fill="#444243"/>
<path fill-rule="evenodd" clip-rule="evenodd" d="M666.009 173.25C665.919 174.15 665.109 174.691 664.208 174.601C663.307 174.511 662.767 173.7 662.857 172.799C662.947 171.899 663.758 171.358 664.658 171.448C665.469 171.538 666.099 172.349 666.009 173.25Z" fill="#1D1E1E"/>
<path fill-rule="evenodd" clip-rule="evenodd" d="M665.649 173.16C665.559 173.88 664.928 174.331 664.208 174.24C663.487 174.15 663.037 173.52 663.127 172.799C663.217 172.079 663.848 171.628 664.568 171.718C665.289 171.899 665.739 172.529 665.649 173.16Z" fill="#444243"/>
<path fill-rule="evenodd" clip-rule="evenodd" d="M663.487 173.16C663.577 172.619 664.028 172.259 664.568 172.259C664.838 172.259 665.019 172.439 665.199 172.529C665.019 172.259 664.748 171.989 664.388 171.989C663.848 171.899 663.307 172.349 663.307 172.889C663.307 173.16 663.397 173.52 663.578 173.7C663.578 173.52 663.487 173.34 663.487 173.16Z" fill="#727273"/>
<path fill-rule="evenodd" clip-rule="evenodd" d="M665.739 171.448C665.739 171.448 665.649 171.448 665.559 171.358C665.469 171.268 665.289 171.178 665.109 171.178C664.929 171.088 664.658 171.088 664.388 171.088C664.118 171.088 663.758 171.178 663.487 171.358C663.307 171.448 663.217 171.538 663.127 171.628C663.037 171.718 662.947 171.809 662.857 171.989C662.677 172.259 662.587 172.439 662.497 172.619C662.407 172.799 662.407 172.98 662.407 173.16C662.407 173.25 662.407 173.34 662.407 173.34C662.407 173.34 662.407 173.25 662.316 173.16C662.316 173.07 662.226 172.889 662.316 172.619C662.316 172.439 662.497 172.169 662.677 171.899C662.767 171.809 662.857 171.628 662.947 171.538C663.037 171.448 663.217 171.358 663.397 171.268C663.668 171.088 664.028 170.998 664.388 170.998C664.658 170.998 664.929 171.088 665.199 171.178C665.379 171.268 665.559 171.358 665.649 171.448C665.649 171.358 665.739 171.448 665.739 171.448Z" fill="#727273"/>
<path fill-rule="evenodd" clip-rule="evenodd" d="M671.324 172.169L673.215 172.259L673.575 170.277L674.386 170.548L673.846 173.07L671.414 173.16L671.324 172.169Z" fill="#110E10"/>
<path fill-rule="evenodd" clip-rule="evenodd" d="M676.007 170.818C675.917 171.088 675.647 171.268 675.377 171.268L673.575 170.908C673.305 170.818 673.125 170.548 673.125 170.277C673.215 170.007 673.485 169.827 673.756 169.827L675.557 170.187C675.827 170.277 676.007 170.548 676.007 170.818Z" fill="#110E10"/>
<path fill-rule="evenodd" clip-rule="evenodd" d="M673.125 170.457C673.665 170.548 674.206 170.638 674.746 170.728C675.197 170.728 675.557 170.818 676.007 170.818C676.007 170.548 675.827 170.277 675.557 170.277L673.756 169.917C673.485 169.827 673.215 170.097 673.125 170.457C673.125 170.367 673.125 170.367 673.125 170.457Z" fill="#1D1E1E"/>
<path fill-rule="evenodd" clip-rule="evenodd" d="M700.236 118.576L700.146 118.486C699.966 118.757 699.696 118.937 699.426 119.027C699.156 119.117 698.885 119.027 698.615 118.937C698.345 118.757 698.255 118.576 698.165 118.306C698.075 118.036 698.165 117.766 698.345 117.496C698.525 117.225 698.795 117.045 699.066 116.955C699.336 116.865 699.606 116.955 699.876 117.045C700.146 117.225 700.236 117.405 700.327 117.676C700.417 117.946 700.327 118.216 700.146 118.486L700.236 118.576L700.327 118.666C700.507 118.396 700.597 118.036 700.507 117.676C700.417 117.315 700.236 117.045 699.966 116.865C699.696 116.685 699.336 116.595 698.975 116.685C698.615 116.775 698.345 116.955 698.165 117.315C697.985 117.586 697.895 117.946 697.985 118.306C698.075 118.666 698.255 118.937 698.525 119.117C698.795 119.297 699.156 119.387 699.516 119.297C699.876 119.207 700.146 119.027 700.327 118.666L700.236 118.576Z" fill="#1D1E1E"/>
<path fill-rule="evenodd" clip-rule="evenodd" d="M686.365 125.962L686.275 125.872C686.095 126.142 685.825 126.323 685.555 126.413C685.285 126.503 685.014 126.413 684.744 126.323C684.474 126.142 684.384 125.962 684.294 125.692C684.204 125.422 684.294 125.152 684.474 124.881C684.654 124.611 684.924 124.431 685.195 124.341C685.465 124.251 685.735 124.341 686.005 124.431C686.275 124.611 686.365 124.791 686.456 125.062C686.546 125.332 686.455 125.602 686.275 125.872L686.365 125.962L686.456 126.052C686.636 125.782 686.726 125.422 686.636 125.062C686.546 124.701 686.365 124.431 686.095 124.251C685.825 124.071 685.465 123.981 685.104 124.071C684.744 124.161 684.474 124.341 684.294 124.701C684.114 124.971 684.024 125.332 684.114 125.692C684.204 126.052 684.384 126.323 684.654 126.503C684.924 126.683 685.285 126.773 685.645 126.683C686.005 126.593 686.275 126.413 686.456 126.052L686.365 125.962Z" fill="#1D1E1E"/>
<path fill-rule="evenodd" clip-rule="evenodd" d="M677.899 137.041L677.809 136.951C677.629 137.221 677.358 137.401 677.088 137.491C676.818 137.581 676.548 137.491 676.278 137.401C676.007 137.221 675.917 137.041 675.827 136.771C675.737 136.501 675.827 136.23 676.007 135.96C676.187 135.69 676.458 135.51 676.728 135.42C676.998 135.33 677.268 135.42 677.539 135.51C677.809 135.69 677.899 135.87 677.989 136.14C678.079 136.41 677.989 136.681 677.809 136.951L677.899 137.041L677.989 137.131C678.169 136.861 678.259 136.501 678.169 136.14C678.079 135.78 677.899 135.51 677.629 135.33C677.358 135.149 676.998 135.059 676.638 135.149C676.278 135.24 676.007 135.42 675.827 135.78C675.647 136.05 675.557 136.41 675.647 136.771C675.737 137.131 675.917 137.401 676.187 137.581C676.458 137.762 676.818 137.852 677.178 137.762C677.539 137.671 677.809 137.491 677.989 137.131L677.899 137.041Z" fill="#1D1E1E"/>
<path fill-rule="evenodd" clip-rule="evenodd" d="M671.684 150.101L671.594 150.011C671.414 150.282 671.143 150.462 670.873 150.552C670.603 150.642 670.333 150.552 670.063 150.462C669.792 150.282 669.702 150.101 669.612 149.831C669.522 149.561 669.612 149.291 669.792 149.021C669.973 148.75 670.243 148.57 670.513 148.48C670.783 148.39 671.053 148.48 671.324 148.57C671.594 148.75 671.684 148.93 671.774 149.201C671.864 149.471 671.774 149.741 671.594 150.011L671.684 150.101L671.774 150.191C671.954 149.921 672.044 149.561 671.954 149.201C671.864 148.84 671.684 148.57 671.414 148.39C671.143 148.21 670.783 148.12 670.423 148.21C670.063 148.3 669.792 148.48 669.612 148.84C669.432 149.111 669.342 149.471 669.432 149.831C669.522 150.191 669.702 150.462 669.973 150.642C670.243 150.822 670.603 150.912 670.963 150.822C671.324 150.732 671.594 150.552 671.774 150.191L671.684 150.101Z" fill="#1D1E1E"/>
<path fill-rule="evenodd" clip-rule="evenodd" d="M667.901 164.333L667.811 164.243C667.631 164.513 667.36 164.693 667.09 164.783C666.82 164.873 666.55 164.783 666.28 164.693C666.009 164.513 665.919 164.333 665.829 164.062C665.739 163.792 665.829 163.522 666.009 163.252C666.19 162.982 666.46 162.801 666.73 162.711C667 162.621 667.27 162.711 667.541 162.801C667.811 162.982 667.901 163.162 667.991 163.432C668.081 163.702 667.991 163.972 667.811 164.243L667.901 164.333L667.991 164.423C668.171 164.152 668.261 163.792 668.171 163.432C668.081 163.072 667.901 162.801 667.631 162.621C667.36 162.441 667 162.351 666.64 162.441C666.28 162.531 666.009 162.711 665.829 163.072C665.649 163.342 665.559 163.702 665.649 164.062C665.739 164.423 665.919 164.693 666.19 164.873C666.46 165.053 666.82 165.143 667.18 165.053C667.541 164.963 667.811 164.783 667.991 164.423L667.901 164.333Z" fill="#1D1E1E"/>
<path fill-rule="evenodd" clip-rule="evenodd" d="M696.003 180.275C696.003 183.338 697.895 183.338 698.525 182.887C699.156 182.527 699.066 181.086 699.066 181.086C699.066 181.086 692.49 113.082 729.69 102.003C730.14 101.823 730.591 101.643 729.6 101.823C722.754 103.084 695.012 112.632 696.003 180.275Z" fill="#110E10"/>
<path fill-rule="evenodd" clip-rule="evenodd" d="M697.805 182.527C697.805 178.834 697.624 175.141 697.534 171.358C697.534 167.575 697.715 163.882 697.895 160.099C698.075 157.577 698.345 155.055 698.705 152.533C698.615 151.813 700.417 138.482 702.308 132.988C704.2 127.493 706.451 122.179 709.694 117.405V117.315C712.036 113.622 714.648 110.38 718.071 107.678C719.692 106.417 721.493 104.705 723.385 103.985H723.475C724.196 103.534 724.916 103.174 725.727 102.814C715.729 106.597 694.922 121.549 695.823 180.275C695.823 182.527 696.904 183.158 697.715 183.068C697.805 182.887 697.805 182.707 697.805 182.527Z" fill="#3E3A39"/>
<path fill-rule="evenodd" clip-rule="evenodd" d="M694.652 153.254C694.652 153.254 699.516 152.713 701.227 153.524C702.939 154.335 702.488 156.316 701.407 156.767C700.327 157.217 696.724 157.938 694.742 157.847L694.652 153.254Z" fill="#1D1E1E"/>
<path fill-rule="evenodd" clip-rule="evenodd" d="M698.615 153.794H698.705C699.066 153.974 699.516 154.155 699.876 154.335C700.327 154.605 700.687 154.875 701.047 155.235C701.407 155.596 701.678 155.956 701.948 156.406C702.578 155.686 702.578 154.245 701.227 153.524C700.327 153.164 698.705 153.074 697.264 153.074C697.715 153.344 698.165 153.614 698.615 153.794Z" fill="#110E10"/>
<path fill-rule="evenodd" clip-rule="evenodd" d="M697.264 155.866C697.084 157.127 695.913 158.028 694.652 157.847C693.391 157.667 692.49 156.496 692.671 155.235C692.851 153.974 694.022 153.074 695.283 153.254C696.544 153.434 697.444 154.605 697.264 155.866Z" fill="#1D1E1E"/>
<path fill-rule="evenodd" clip-rule="evenodd" d="M697.174 155.866C696.994 157.037 695.913 157.938 694.742 157.757C693.571 157.577 692.671 156.496 692.851 155.326C693.031 154.155 694.112 153.254 695.283 153.434C696.453 153.524 697.354 154.605 697.174 155.866Z" fill="#444243"/>
<path fill-rule="evenodd" clip-rule="evenodd" d="M696.544 155.776C696.454 156.677 695.643 157.217 694.742 157.127C693.841 157.037 693.301 156.226 693.391 155.325C693.481 154.425 694.292 153.884 695.193 153.974C696.093 154.064 696.634 154.875 696.544 155.776Z" fill="#1D1E1E"/>
<path fill-rule="evenodd" clip-rule="evenodd" d="M696.273 155.686C696.183 156.406 695.553 156.857 694.832 156.767C694.112 156.677 693.661 156.046 693.751 155.326C693.842 154.605 694.472 154.155 695.193 154.245C695.823 154.425 696.363 155.055 696.273 155.686Z" fill="#444243"/>
<path fill-rule="evenodd" clip-rule="evenodd" d="M694.112 155.686C694.202 155.145 694.652 154.785 695.193 154.785C695.463 154.785 695.643 154.965 695.823 155.055C695.643 154.785 695.373 154.515 695.012 154.515C694.472 154.425 693.932 154.875 693.932 155.416C693.932 155.686 694.022 156.046 694.202 156.226C694.112 156.046 694.112 155.866 694.112 155.686Z" fill="#727273"/>
<path fill-rule="evenodd" clip-rule="evenodd" d="M696.273 153.974C696.273 153.974 696.183 153.974 696.093 153.884C696.003 153.794 695.823 153.704 695.643 153.704C695.463 153.614 695.193 153.614 694.922 153.614C694.652 153.614 694.292 153.704 694.022 153.884C693.841 153.974 693.751 154.064 693.661 154.155C693.571 154.245 693.481 154.335 693.391 154.515C693.211 154.785 693.121 154.965 693.031 155.145C692.941 155.325 692.941 155.506 692.941 155.686C692.941 155.776 692.941 155.866 692.941 155.866C692.941 155.866 692.941 155.776 692.851 155.686C692.851 155.596 692.761 155.416 692.851 155.145C692.851 154.965 693.031 154.695 693.211 154.425C693.301 154.335 693.391 154.155 693.481 154.064C693.571 153.974 693.751 153.884 693.932 153.794C694.202 153.614 694.562 153.524 694.922 153.524C695.193 153.524 695.463 153.614 695.733 153.704C695.913 153.794 696.093 153.884 696.183 153.974C696.273 153.884 696.273 153.974 696.273 153.974Z" fill="#727273"/>
<path fill-rule="evenodd" clip-rule="evenodd" d="M701.858 154.695L703.749 154.785L704.2 152.803L705.01 153.074L704.47 155.596L701.948 155.686L701.858 154.695Z" fill="#110E10"/>
<path fill-rule="evenodd" clip-rule="evenodd" d="M706.542 153.344C706.451 153.614 706.181 153.794 705.911 153.794L704.11 153.434C703.839 153.344 703.659 153.074 703.659 152.804C703.749 152.533 704.019 152.353 704.29 152.353L706.091 152.713C706.451 152.803 706.632 153.074 706.542 153.344Z" fill="#110E10"/>
<path fill-rule="evenodd" clip-rule="evenodd" d="M703.659 152.984C704.2 153.074 704.74 153.164 705.281 153.254C705.731 153.254 706.091 153.344 706.542 153.344C706.542 153.074 706.361 152.804 706.091 152.804L704.29 152.443C704.019 152.353 703.749 152.623 703.659 152.984C703.659 152.894 703.659 152.894 703.659 152.984Z" fill="#1D1E1E"/>
<path fill-rule="evenodd" clip-rule="evenodd" d="M730.861 101.102L730.771 101.012C730.591 101.283 730.32 101.463 730.05 101.553C729.78 101.643 729.51 101.553 729.24 101.463C728.969 101.283 728.879 101.102 728.789 100.832C728.699 100.562 728.789 100.292 728.969 100.022C729.149 99.7514 729.42 99.5713 729.69 99.4812C729.96 99.3911 730.23 99.4812 730.501 99.5713C730.771 99.7514 730.861 99.9316 730.951 100.202C731.041 100.472 730.951 100.742 730.771 101.012L730.861 101.102L730.951 101.193C731.131 100.922 731.221 100.562 731.131 100.202C731.041 99.8415 730.861 99.5713 730.591 99.3911C730.32 99.211 729.96 99.1209 729.6 99.211C729.24 99.3011 728.969 99.4812 728.789 99.8415C728.609 100.112 728.519 100.472 728.609 100.832C728.699 101.193 728.879 101.463 729.149 101.643C729.42 101.823 729.78 101.913 730.14 101.823C730.501 101.733 730.771 101.553 730.951 101.193L730.861 101.102Z" fill="#1D1E1E"/>
<path fill-rule="evenodd" clip-rule="evenodd" d="M716.99 108.488L716.9 108.398C716.72 108.669 716.449 108.849 716.179 108.939C715.909 109.029 715.639 108.939 715.369 108.849C715.098 108.669 715.008 108.488 714.918 108.218C714.828 107.948 714.918 107.678 715.098 107.407C715.278 107.137 715.549 106.957 715.819 106.867C716.089 106.777 716.359 106.867 716.63 106.957C716.9 107.137 716.99 107.317 717.08 107.588C717.17 107.858 717.08 108.128 716.9 108.398L716.99 108.488L717.08 108.578C717.26 108.308 717.35 107.948 717.26 107.588C717.17 107.227 716.99 106.957 716.72 106.777C716.449 106.597 716.089 106.507 715.729 106.597C715.369 106.687 715.098 106.867 714.918 107.227C714.738 107.498 714.648 107.858 714.738 108.218C714.828 108.578 715.008 108.849 715.278 109.029C715.549 109.209 715.909 109.299 716.269 109.209C716.63 109.119 716.9 108.939 717.08 108.578L716.99 108.488Z" fill="#1D1E1E"/>
<path fill-rule="evenodd" clip-rule="evenodd" d="M708.433 119.567L708.343 119.477C708.163 119.747 707.893 119.927 707.622 120.017C707.352 120.108 707.082 120.017 706.812 119.927C706.542 119.747 706.451 119.567 706.361 119.297C706.271 119.027 706.361 118.756 706.541 118.486C706.722 118.216 706.992 118.036 707.262 117.946C707.532 117.856 707.802 117.946 708.073 118.036C708.343 118.216 708.433 118.396 708.523 118.666C708.613 118.937 708.523 119.207 708.343 119.477L708.433 119.567L708.523 119.657C708.703 119.387 708.793 119.027 708.703 118.666C708.613 118.306 708.433 118.036 708.163 117.856C707.893 117.676 707.532 117.586 707.172 117.676C706.812 117.766 706.542 117.946 706.361 118.306C706.181 118.576 706.091 118.937 706.181 119.297C706.271 119.657 706.451 119.927 706.722 120.108C706.992 120.288 707.352 120.378 707.712 120.288C708.073 120.198 708.343 120.017 708.523 119.657L708.433 119.567Z" fill="#1D1E1E"/>
<path fill-rule="evenodd" clip-rule="evenodd" d="M702.218 132.628L702.128 132.537C701.948 132.808 701.678 132.988 701.407 133.078C701.137 133.168 700.867 133.078 700.597 132.988C700.327 132.808 700.237 132.628 700.146 132.357C700.056 132.087 700.146 131.817 700.327 131.547C700.507 131.276 700.777 131.096 701.047 131.006C701.317 130.916 701.588 131.006 701.858 131.096C702.128 131.276 702.218 131.457 702.308 131.727C702.398 131.997 702.308 132.267 702.128 132.537L702.218 132.628L702.308 132.718C702.488 132.447 702.578 132.087 702.488 131.727C702.398 131.367 702.218 131.096 701.948 130.916C701.678 130.736 701.317 130.646 700.957 130.736C700.597 130.826 700.327 131.006 700.146 131.367C699.966 131.637 699.876 131.997 699.966 132.357C700.056 132.718 700.237 132.988 700.507 133.168C700.777 133.348 701.137 133.438 701.498 133.348C701.858 133.258 702.128 133.078 702.308 132.718L702.218 132.628Z" fill="#1D1E1E"/>
<path fill-rule="evenodd" clip-rule="evenodd" d="M698.435 146.859L698.345 146.769C698.165 147.039 697.895 147.219 697.624 147.309C697.354 147.399 697.084 147.309 696.814 147.219C696.544 147.039 696.454 146.859 696.363 146.589C696.273 146.318 696.363 146.048 696.544 145.778C696.724 145.508 696.994 145.328 697.264 145.237C697.534 145.147 697.805 145.237 698.075 145.328C698.345 145.508 698.435 145.688 698.525 145.958C698.615 146.228 698.525 146.498 698.345 146.769L698.435 146.859L698.525 146.949C698.705 146.679 698.795 146.318 698.705 145.958C698.615 145.598 698.435 145.328 698.165 145.147C697.895 144.967 697.534 144.877 697.174 144.967C696.814 145.057 696.544 145.237 696.363 145.598C696.183 145.868 696.093 146.228 696.183 146.589C696.273 146.949 696.454 147.219 696.724 147.399C696.994 147.579 697.354 147.669 697.715 147.579C698.075 147.489 698.345 147.309 698.525 146.949L698.435 146.859Z" fill="#1D1E1E"/>
<path fill-rule="evenodd" clip-rule="evenodd" d="M709.334 171.088L622.415 221.258V237.291L709.334 187.121V171.088Z" fill="#9B9B9B"/>
<path fill-rule="evenodd" clip-rule="evenodd" d="M705.281 168.746L618.362 218.916L622.415 221.258L709.334 171.088L705.281 168.746Z" fill="white"/>
<path fill-rule="evenodd" clip-rule="evenodd" d="M618.362 218.916L622.415 221.258V237.29L618.362 234.949V218.916Z" fill="#C8C8C8"/>
<path fill-rule="evenodd" clip-rule="evenodd" d="M605.211 205.585C605.301 203.153 605.211 201.442 605.752 199.01C606.832 193.966 608.003 189.012 609.625 184.148C610.706 180.726 611.967 177.303 613.768 174.15C614.308 173.16 614.939 172.079 615.569 171.088C618.722 166.044 622.685 161 627.459 157.667C628.81 156.677 630.251 155.776 631.782 155.055C634.214 153.884 636.916 152.984 639.618 152.713C641.24 152.533 642.771 152.894 644.302 153.434C649.346 155.235 653.94 157.757 658.083 160.279C661.776 162.531 665.109 164.873 668.171 167.755C672.585 171.989 676.998 176.672 680.421 181.716C683.934 186.941 687.176 192.525 689.788 198.29C705.1 232.877 703.569 272.869 703.569 272.869C703.929 227.293 692.04 170.638 644.302 153.164C642.771 152.623 641.24 152.353 639.528 152.533C636.826 152.803 634.034 153.704 631.602 154.875C630.071 155.596 628.63 156.586 627.279 157.487C622.415 160.82 618.452 165.864 615.299 170.998C614.669 171.989 614.038 173.07 613.498 174.06C611.696 177.213 610.435 180.636 609.354 184.058C607.733 188.922 606.562 193.966 605.481 198.92C604.941 201.352 605.031 203.063 604.941 205.495L605.211 205.585Z" fill="#1D1E1E"/>
<path fill-rule="evenodd" clip-rule="evenodd" d="M635.385 188.832C635.475 186.4 635.385 184.689 635.926 182.257C637.006 177.213 638.177 172.259 639.799 167.395C640.879 163.972 642.14 160.55 643.942 157.397C644.482 156.406 645.113 155.325 645.743 154.335C648.896 149.291 652.859 144.247 657.633 140.914C658.984 139.923 660.425 139.023 661.956 138.302C664.388 137.131 667.09 136.23 669.792 135.96C671.414 135.78 672.945 136.14 674.476 136.681C679.52 138.482 684.114 141.004 688.257 143.526C691.95 145.778 695.283 148.12 698.345 151.002C702.759 155.235 707.172 159.919 710.595 164.963C714.108 170.187 717.35 175.772 719.962 181.536C735.274 216.124 733.743 256.115 733.743 256.115C734.103 210.539 722.214 153.884 674.476 136.41C672.945 135.87 671.414 135.6 669.702 135.78C667 136.05 664.208 136.951 661.776 138.122C660.245 138.842 658.804 139.833 657.453 140.734C652.589 144.067 648.626 149.111 645.473 154.245C644.843 155.235 644.212 156.316 643.672 157.307C641.87 160.46 640.609 163.882 639.528 167.305C637.907 172.169 636.736 177.213 635.655 182.167C635.115 184.599 635.205 186.31 635.115 188.742L635.385 188.832Z" fill="#1D1E1E"/>
<path fill-rule="evenodd" clip-rule="evenodd" d="M666.28 170.998C666.37 168.566 666.28 166.855 666.82 164.423C667.901 159.379 669.072 154.425 670.693 149.561C671.774 146.138 673.035 142.715 674.836 139.563C675.377 138.572 676.007 137.491 676.638 136.501C679.79 131.457 683.753 126.413 688.527 123.08C689.878 122.089 691.319 121.188 692.851 120.468C695.283 119.297 697.985 118.396 700.687 118.126C702.308 117.946 703.839 118.306 705.371 118.847C710.415 120.648 715.008 123.17 719.151 125.692C722.844 127.944 726.177 130.286 729.24 133.168C733.653 137.401 738.067 142.085 741.489 147.129C745.002 152.353 748.245 157.938 750.857 163.702C766.169 198.29 764.638 238.281 764.638 238.281C764.998 192.705 753.108 136.05 705.371 118.576C703.839 118.036 702.308 117.766 700.597 117.946C697.895 118.216 695.102 119.117 692.671 120.288C691.139 121.008 689.698 121.999 688.347 122.9C683.483 126.232 679.52 131.276 676.368 136.41C675.737 137.401 675.107 138.482 674.566 139.473C672.765 142.625 671.504 146.048 670.423 149.471C668.802 154.335 667.631 159.379 666.55 164.333C666.009 166.765 666.099 168.476 666.009 170.908L666.28 170.998Z" fill="#1D1E1E"/>
<path fill-rule="evenodd" clip-rule="evenodd" d="M696.544 153.524C696.634 151.092 696.544 149.381 697.084 146.949C698.165 141.905 699.336 136.951 700.957 132.087C702.038 128.664 703.299 125.242 705.1 122.089C705.641 121.098 706.271 120.017 706.902 119.027C710.054 113.983 714.018 108.939 718.791 105.606C720.142 104.615 721.584 103.715 723.115 102.994C725.547 101.823 728.249 100.922 730.951 100.652C732.572 100.472 734.103 100.832 735.635 101.373C740.679 103.174 745.272 105.696 749.416 108.218C753.109 110.47 756.441 112.812 759.504 115.694C763.917 119.927 768.331 124.611 771.753 129.655C775.266 134.879 778.509 140.464 781.121 146.228C796.433 180.816 794.902 220.807 794.902 220.807C795.262 175.231 783.373 118.576 735.635 101.102C734.103 100.562 732.572 100.292 730.861 100.472C728.159 100.742 725.366 101.643 722.935 102.814C721.403 103.534 719.962 104.525 718.611 105.426C713.747 108.759 709.784 113.803 706.632 118.937C706.001 119.927 705.371 121.008 704.83 121.999C703.029 125.152 701.768 128.574 700.687 131.997C699.066 136.861 697.895 141.905 696.814 146.859C696.273 149.291 696.364 151.002 696.273 153.434L696.544 153.524Z" fill="#1D1E1E"/>
<path fill-rule="evenodd" clip-rule="evenodd" d="M574.497 146.318L573.056 147.219V194.146L574.497 193.246V146.318Z" fill="#9B9B9B"/>
<path fill-rule="evenodd" clip-rule="evenodd" d="M574.497 146.318L573.056 145.508L571.615 146.318L573.056 147.219L574.497 146.318Z" fill="#DFDCD8"/>
<path fill-rule="evenodd" clip-rule="evenodd" d="M571.615 146.318L573.056 147.219V194.146L571.615 193.246V146.318Z" fill="#C8C8C8"/>
<path fill-rule="evenodd" clip-rule="evenodd" d="M530.542 170.638L529.101 171.448L521.715 222.789L523.156 221.888L530.542 170.638Z" fill="#9B9B9B"/>
<path fill-rule="evenodd" clip-rule="evenodd" d="M530.542 170.638L529.101 169.827L527.57 170.638L529.101 171.448L530.542 170.638Z" fill="#DFDCD8"/>
<path fill-rule="evenodd" clip-rule="evenodd" d="M527.57 170.638L529.101 171.448L521.715 222.789L520.274 221.888L527.57 170.638Z" fill="#C8C8C8"/>
<path fill-rule="evenodd" clip-rule="evenodd" d="M516.131 108.578L514.599 109.389V156.316L516.131 155.506V108.578Z" fill="#9B9B9B"/>
<path fill-rule="evenodd" clip-rule="evenodd" d="M516.131 108.578L514.599 107.678L513.158 108.578L514.599 109.389L516.131 108.578Z" fill="#DFDCD8"/>
<path fill-rule="evenodd" clip-rule="evenodd" d="M513.158 108.578L514.599 109.389V156.316L513.158 155.506V108.578Z" fill="#C8C8C8"/>
<path fill-rule="evenodd" clip-rule="evenodd" d="M472.086 132.898L470.644 133.708L463.349 184.959L464.79 184.148L472.086 132.898Z" fill="#9B9B9B"/>
<path fill-rule="evenodd" clip-rule="evenodd" d="M472.086 132.898L470.644 131.997L469.203 132.898L470.644 133.708L472.086 132.898Z" fill="#DFDCD8"/>
<path fill-rule="evenodd" clip-rule="evenodd" d="M469.203 132.898L470.644 133.708L463.349 184.959L461.908 184.148L469.203 132.898Z" fill="#C8C8C8"/>
<path fill-rule="evenodd" clip-rule="evenodd" d="M590.349 141.094L525.678 103.805L450.829 147.039L515.5 184.329L590.349 141.094Z" fill="white"/>
<path fill-rule="evenodd" clip-rule="evenodd" d="M590.349 138.392L525.678 101.103L450.829 144.247L515.5 181.626L590.349 138.392Z" fill="white"/>
<path fill-rule="evenodd" clip-rule="evenodd" d="M450.829 147.039V144.247L515.5 181.626V184.328L450.829 147.039Z" fill="#DFDCD8"/>
<path fill-rule="evenodd" clip-rule="evenodd" d="M515.5 184.329V181.626L590.349 138.392V141.094L515.5 184.329Z" fill="#BDB6AE"/>
<path fill-rule="evenodd" clip-rule="evenodd" d="M496.675 203.424L481.453 212.251V193.786L489.92 188.922L496.675 203.424Z" fill="#9B9B9B"/>
<path fill-rule="evenodd" clip-rule="evenodd" d="M481.453 212.251L470.825 206.126V187.661L481.453 193.786V212.251Z" fill="#C8C8C8"/>
<path fill-rule="evenodd" clip-rule="evenodd" d="M470.825 187.661L479.291 182.797L489.92 188.922L481.453 193.786L470.825 187.661Z" fill="white"/>
<path fill-rule="evenodd" clip-rule="evenodd" d="M470.825 187.841L455.963 179.284L454.251 180.275L470.825 189.823V187.841ZM510.636 210.809L488.479 198.019L486.587 198.92L508.835 211.8L510.636 210.809Z" fill="white"/>
<path fill-rule="evenodd" clip-rule="evenodd" d="M510.636 210.809L508.925 211.8V214.322L510.636 213.241V210.809Z" fill="#9B9B9B"/>
<path fill-rule="evenodd" clip-rule="evenodd" d="M470.825 192.255L454.251 182.707V180.275L470.825 189.823V192.255ZM508.925 214.322L486.677 201.442V199.01L508.925 211.89V214.322Z" fill="#C8C8C8"/>
<path fill-rule="evenodd" clip-rule="evenodd" d="M712.937 267.735C743.381 267.735 768.06 282.146 768.06 299.89C768.06 317.634 743.381 332.046 712.937 332.046C682.492 332.046 657.813 317.634 657.813 299.89C657.813 282.146 682.492 267.735 712.937 267.735Z" fill="#1746BE"/>
<path fill-rule="evenodd" clip-rule="evenodd" d="M712.937 276.292C735.274 276.292 753.379 286.83 753.379 299.89C753.379 312.951 735.274 323.489 712.937 323.489C690.599 323.489 672.494 312.951 672.494 299.89C672.494 286.92 690.599 276.292 712.937 276.292Z" fill="#1B63CE"/>
<path fill-rule="evenodd" clip-rule="evenodd" d="M712.937 283.587C728.339 283.587 740.859 290.883 740.859 299.89C740.859 308.897 728.339 316.193 712.937 316.193C697.534 316.193 685.014 308.897 685.014 299.89C685.014 290.883 697.534 283.587 712.937 283.587Z" fill="#1B74DD"/>
<path fill-rule="evenodd" clip-rule="evenodd" d="M712.937 291.063C721.313 291.063 728.159 295.026 728.159 299.98C728.159 304.934 721.313 308.897 712.937 308.897C704.56 308.897 697.714 304.934 697.714 299.98C697.714 295.026 704.56 291.063 712.937 291.063Z" fill="#1F8AEC"/>
<path fill-rule="evenodd" clip-rule="evenodd" d="M694.022 284.578C694.022 284.578 686.996 294.036 693.031 300.701C693.031 300.701 693.031 299.53 693.841 298.179C695.283 295.747 697.354 295.297 697.895 294.666L694.022 284.578Z" fill="#DDD36E"/>
<path fill-rule="evenodd" clip-rule="evenodd" d="M708.163 258.998C708.073 260.349 706.361 266.654 705.01 267.374C702.849 268.545 700.417 263.411 700.236 262.06C700.236 261.97 700.237 261.88 700.327 261.61C701.317 262.15 702.218 262.691 703.209 263.141C703.479 263.231 703.749 263.411 703.929 263.501C704.65 263.862 705.01 263.591 705.281 262.961C705.641 262.24 707.442 258.638 707.893 257.917C708.073 257.917 708.163 257.917 708.343 257.917C708.253 258.367 708.163 258.728 708.163 258.998ZM707.352 257.917C707.082 258.277 705.371 261.61 705.19 261.97C704.56 263.141 704.38 263.231 703.209 262.511C702.308 261.97 701.407 261.43 700.417 260.889C699.786 260.529 699.246 260.619 698.885 261.43C697.264 265.123 695.553 268.275 694.112 272.418C690.959 281.426 693.121 287.1 697.714 295.387C698.885 297.548 700.507 299.35 702.398 300.971C705.911 303.943 709.874 304.754 714.288 303.853C715.639 303.583 716.99 303.043 718.521 302.502C717.891 301.962 721.944 303.763 725.186 302.953C724.556 302.322 724.105 301.872 723.655 301.512C722.844 300.971 722.574 300.251 722.844 299.35C722.844 299.17 722.844 298.99 722.934 298.809C722.754 298.719 722.574 298.719 722.304 298.629C723.565 297.548 724.736 296.648 726.447 296.558C730.23 296.377 733.833 295.387 737.076 293.405C737.346 293.225 737.706 293.045 738.157 292.685C737.616 292.594 737.346 292.595 737.076 292.595C735.995 292.324 734.824 291.964 733.743 291.604C733.113 291.424 732.662 290.973 732.032 290.973C730.681 290.883 729.24 290.883 727.798 290.973C726.627 291.063 725.456 290.973 724.736 290.073C723.295 288.271 721.043 287.641 719.151 286.199C719.332 287.1 719.422 288.001 719.602 288.902C719.872 289.982 720.232 291.243 720.503 292.324C720.683 293.045 720.683 293.045 720.142 293.585C715.819 297.999 713.567 291.514 713.657 288.271C713.747 288.361 713.747 288.541 713.837 288.631C714.108 289.532 714.468 289.802 715.369 289.442C716.72 288.902 718.161 288.721 719.602 288.811C719.422 288.721 719.242 288.631 719.061 288.451C717.62 286.47 715.819 285.029 713.477 284.218C713.387 284.218 713.297 283.948 713.207 283.768C713.207 283.768 713.207 283.768 713.117 283.768V283.858C713.027 283.587 712.937 283.407 712.937 283.137C712.666 277.823 710.865 270.617 709.604 260.079C709.514 259.268 709.244 258.547 708.883 257.827C708.613 257.016 707.983 257.016 707.352 257.917Z" fill="#D6CB51"/>
<path fill-rule="evenodd" clip-rule="evenodd" d="M713.837 288.451C713.927 288.541 713.927 288.631 713.927 288.721C714.198 289.622 714.558 289.892 715.459 289.532C717.71 288.541 719.872 289.442 719.151 288.541C717.71 286.56 715.909 285.118 713.567 284.308C713.477 284.308 713.387 284.038 713.297 283.857C713.297 283.857 713.297 283.857 713.207 283.857V283.948C713.207 283.767 713.117 283.587 713.117 283.407L713.837 288.451Z" fill="#9D8E24"/>
<path fill-rule="evenodd" clip-rule="evenodd" d="M706.181 267.825C707.172 268.275 708.613 269.987 706.632 275.661C703.839 283.858 706.902 296.558 712.126 298.899C718.341 301.692 721.313 296.648 721.764 295.747C721.133 296.558 716.179 298.719 715.098 295.387C714.828 294.486 714.288 293.045 714.107 292.234C713.837 291.153 714.107 289.532 713.747 288.541C713.837 288.902 713.207 285.569 713.207 283.497C713.117 279.624 712.486 277.192 711.946 273.589C711.225 269.446 710.415 264.402 709.874 260.169C709.784 259.628 709.604 259.088 709.424 258.547C709.244 260.799 707.172 265.843 706.181 267.825Z" fill="#D0C12E"/>
<path fill-rule="evenodd" clip-rule="evenodd" d="M705.551 281.966C704.11 282.416 703.479 286.83 703.749 288.181C704.019 289.622 703.839 289.982 703.659 292.144C704.38 290.973 706.812 289.442 707.802 288.631C708.793 287.821 709.784 287.55 710.234 286.199C710.955 283.767 707.893 283.767 707.532 281.335L705.551 281.966Z" fill="#9D8E24"/>
<path fill-rule="evenodd" clip-rule="evenodd" d="M708.163 258.998C708.073 260.349 706.361 266.654 705.01 267.374C702.849 268.545 700.417 263.411 700.237 262.06C700.237 261.97 700.237 261.88 700.327 261.61C701.317 262.15 702.218 262.691 703.209 263.141C703.479 263.231 703.749 263.411 703.929 263.501C704.65 263.862 705.01 263.591 705.281 262.961C705.641 262.24 707.442 258.637 707.893 257.917C708.073 257.917 708.163 257.917 708.343 257.917C708.253 258.367 708.163 258.728 708.163 258.998Z" fill="#7C312C"/>
<path fill-rule="evenodd" clip-rule="evenodd" d="M704.92 267.464C704.92 267.464 701.858 267.645 700.236 261.61L702.218 262.601C702.218 262.601 700.056 259.718 699.156 261.069C698.165 262.511 701.588 268.635 704.92 267.464Z" fill="#F1E6CB"/>
<path fill-rule="evenodd" clip-rule="evenodd" d="M692.941 300.611C692.941 300.611 687.086 295.567 693.481 285.479L693.391 284.668C693.211 284.938 686.365 293.225 692.941 300.611Z" fill="#D6CB51"/>
<path opacity="0.4" fill-rule="evenodd" clip-rule="evenodd" d="M711.405 284.938C710.955 293.855 714.288 295.026 715.188 295.206C715.188 295.116 714.648 293.135 714.288 292.054C713.927 290.973 714.198 289.262 713.837 288.271C713.927 288.631 713.297 285.299 713.297 283.227C713.207 279.444 712.756 278.003 712.126 274.4C711.766 272.418 709.784 271.248 709.424 269.176C709.244 269.176 711.856 274.76 711.405 284.938Z" fill="#BBAB16"/>
<path fill-rule="evenodd" clip-rule="evenodd" d="M694.562 274.67C694.562 274.67 692.851 279.264 695.553 288.001C698.255 296.738 701.047 303.403 711.766 303.493C711.766 303.493 699.426 303.313 697.624 287.821C695.913 272.328 694.562 274.67 694.562 274.67Z" fill="#DDD36E"/>
<path fill-rule="evenodd" clip-rule="evenodd" d="M694.922 273.95C694.022 276.742 693.121 282.236 698.885 282.596C703.659 282.867 706.542 276.742 707.532 271.878C703.029 275.211 700.237 265.573 698.075 264.222L694.922 273.95Z" fill="#BBAB16"/>
<path fill-rule="evenodd" clip-rule="evenodd" d="M698.976 268.726C698.255 268.275 697.354 268.455 696.904 269.176C696.454 269.896 696.634 270.797 697.354 271.248C698.075 271.698 698.976 271.518 699.426 270.797C699.876 270.077 699.696 269.176 698.976 268.726Z" fill="#5A593B"/>
<path fill-rule="evenodd" clip-rule="evenodd" d="M698.795 268.725C698.255 268.365 697.624 268.545 697.174 269.086C696.814 269.626 696.904 270.347 697.354 270.707C697.895 271.067 698.525 270.887 698.976 270.347C699.426 269.806 699.336 269.086 698.795 268.725Z" fill="#DDE5BE"/>
<path fill-rule="evenodd" clip-rule="evenodd" d="M698.705 269.176C698.255 268.906 697.624 268.996 697.354 269.446C697.084 269.896 697.174 270.527 697.624 270.797C698.075 271.067 698.705 270.977 698.976 270.527C699.246 270.077 699.156 269.446 698.705 269.176Z" fill="#DF6A53"/>
<path fill-rule="evenodd" clip-rule="evenodd" d="M698.525 269.446C698.255 269.266 697.895 269.356 697.715 269.626C697.534 269.896 697.624 270.257 697.895 270.437C698.165 270.617 698.525 270.527 698.705 270.257C698.885 269.986 698.795 269.626 698.525 269.446Z" fill="#110420"/>
<path fill-rule="evenodd" clip-rule="evenodd" d="M698.976 270.527C699.246 270.077 699.156 269.446 698.705 269.176C698.705 269.176 699.426 269.806 698.615 270.527C697.805 271.248 697.354 270.437 697.354 270.437H697.264C697.354 270.617 697.444 270.707 697.534 270.797C698.075 271.067 698.615 270.977 698.976 270.527Z" fill="#EEBCB8"/>
<path fill-rule="evenodd" clip-rule="evenodd" d="M704.92 267.464C704.92 267.464 705.19 271.788 703.839 270.437C702.488 269.086 702.488 268.365 700.687 267.014C698.885 265.663 698.075 263.952 698.976 261.61C698.885 261.52 702.128 268.545 704.92 267.464Z" fill="#DAC367"/>
<path fill-rule="evenodd" clip-rule="evenodd" d="M704.65 267.374C704.65 267.374 705.1 264.943 704.92 263.501C704.92 263.501 707.262 258.367 707.803 258.007C707.803 258.007 707.983 259.448 706.091 266.023C706.091 266.023 705.731 267.194 704.65 267.374Z" fill="#935B24"/>
<path fill-rule="evenodd" clip-rule="evenodd" d="M705.911 266.474C705.911 266.474 708.883 259.088 708.253 258.097C707.622 257.106 705.461 262.51 705.461 262.51C705.461 262.51 707.442 257.016 708.433 257.286C708.523 257.196 708.613 260.619 705.911 266.474Z" fill="#F1E6CB"/>
<path fill-rule="evenodd" clip-rule="evenodd" d="M703.749 292.054C703.749 292.054 704.65 291.333 704.38 288.541C704.019 285.119 704.11 283.317 705.641 281.966C705.641 281.966 703.479 282.416 703.749 286.47C703.749 286.47 703.479 288.631 703.749 292.054Z" fill="#DAC367"/>
<path fill-rule="evenodd" clip-rule="evenodd" d="M715.278 295.747C715.278 295.747 718.521 297.728 722.394 293.495L724.105 294.036C724.105 294.126 717.89 300.16 715.278 295.747Z" fill="#BBAB16"/>
<path fill-rule="evenodd" clip-rule="evenodd" d="M714.017 290.793C714.017 290.793 713.927 295.387 715.369 296.017C716.81 296.648 719.152 297.458 722.664 293.585L720.593 293.135C720.593 293.135 717.981 295.837 716.179 294.756C714.558 293.765 714.017 290.793 714.017 290.793Z" fill="#9D8E24"/>
<path fill-rule="evenodd" clip-rule="evenodd" d="M726.447 296.738C730.23 296.557 733.833 295.567 737.076 293.585C737.346 293.405 737.706 293.225 738.157 292.865C737.616 292.774 737.346 292.775 737.076 292.775C735.995 292.504 734.824 292.144 733.743 291.784C733.113 291.604 732.662 291.153 732.032 291.153C730.681 291.063 729.24 291.063 727.798 291.153C726.627 291.243 725.457 291.153 724.736 290.252C723.295 288.451 721.043 287.821 719.152 286.379C719.332 287.28 719.422 288.181 719.602 289.082C719.872 290.162 720.232 291.423 720.503 292.504C720.593 292.865 720.683 293.045 720.593 293.225C720.863 293.405 724.196 295.567 725.096 296.918H725.366C725.817 296.828 726.177 296.738 726.447 296.738Z" fill="#9D8E24"/>
</svg>
