<svg width="39" height="39" viewBox="0 0 39 39" fill="none" xmlns="http://www.w3.org/2000/svg">
<path d="M18.2073 29.3239C18.3771 29.4937 18.5786 29.6283 18.8004 29.7202C19.0222 29.8121 19.2599 29.8594 19.5 29.8594C19.7401 29.8594 19.9778 29.8121 20.1996 29.7202C20.4214 29.6283 20.623 29.4937 20.7927 29.3239L27.687 22.4296C28.0298 22.0868 28.2224 21.6218 28.2224 21.137C28.2224 20.6521 28.0298 20.1871 27.687 19.8443C27.3441 19.5015 26.8791 19.3089 26.3943 19.3089C25.9094 19.3089 25.4445 19.5015 25.1016 19.8443L21.3281 23.6178V3.65625C21.3281 3.1714 21.1355 2.70641 20.7927 2.36357C20.4498 2.02073 19.9849 1.82813 19.5 1.82812C19.0152 1.82813 18.5502 2.02073 18.2073 2.36357C17.8645 2.70641 17.6719 3.1714 17.6719 3.65625V23.6178L13.8984 19.8443C13.5556 19.5015 13.0906 19.3089 12.6057 19.3089C12.1209 19.3089 11.6559 19.5015 11.3131 19.8443C10.9702 20.1871 10.7776 20.6521 10.7776 21.137C10.7776 21.6218 10.9702 22.0868 11.3131 22.4296L18.2073 29.3239Z" fill="#F3F3F3"/>
<path d="M35.3438 17.6719C34.8589 17.6719 34.3939 17.8645 34.0511 18.2073C33.7082 18.5502 33.5156 19.0152 33.5156 19.5V33.5156H5.48438V19.5C5.48438 19.0152 5.29177 18.5502 4.94893 18.2073C4.60609 17.8645 4.1411 17.6719 3.65625 17.6719C3.1714 17.6719 2.70641 17.8645 2.36357 18.2073C2.02073 18.5502 1.82813 19.0152 1.82812 19.5V34.125C1.82812 34.9331 2.14913 35.7081 2.72053 36.2795C3.29193 36.8509 4.06692 37.1719 4.875 37.1719H34.125C34.9331 37.1719 35.7081 36.8509 36.2795 36.2795C36.8509 35.7081 37.1719 34.9331 37.1719 34.125V19.5C37.1719 19.0152 36.9793 18.5502 36.6364 18.2073C36.2936 17.8645 35.8286 17.6719 35.3438 17.6719Z" fill="#F3F3F3"/>
</svg>
