<svg width="60" height="52" viewBox="0 0 60 52" fill="none" xmlns="http://www.w3.org/2000/svg">
<path d="M21.0675 34.2253C23.3002 34.2253 25.1102 32.3549 25.1102 30.0477C25.1102 27.7405 23.3002 25.8701 21.0675 25.8701C18.8348 25.8701 17.0248 27.7405 17.0248 30.0477C17.0248 32.3549 18.8348 34.2253 21.0675 34.2253Z" fill="#092D72"/>
<path d="M60 26.6681C60 21.5062 56.0676 17.3071 51.2338 17.3071C49.5376 17.3071 47.9631 17.8377 46.6225 18.7258C42.4638 16.2304 37.2193 14.68 31.4918 14.4678L34.7929 4.67458L41.6309 6.36638C41.6081 6.60021 41.5644 6.82421 41.5644 7.06394C41.5644 10.9584 44.6316 14.1279 48.4024 14.1279C52.1675 14.1279 55.2404 10.9604 55.2404 7.06394C55.2404 3.16747 52.1694 0 48.4024 0C45.9437 0 43.8063 1.3558 42.6026 3.36986L32.8248 0.952993L28.261 14.4875C22.5602 14.7901 17.3708 16.4327 13.2901 18.995C13.3718 18.9361 13.4422 18.8693 13.524 18.8103C12.151 17.8632 10.5214 17.3052 8.76815 17.3052C3.93248 17.3052 0.00195312 21.5023 0.00195312 26.6661C0.00195312 30.1185 1.77991 33.1131 4.39836 34.7302C5.47084 44.382 16.6045 52 30.1626 52C43.8082 52 54.9989 44.2798 55.9459 34.5396C58.3761 32.8832 60 29.977 60 26.6681ZM48.3986 3.14782C50.4884 3.14782 52.1903 4.90644 52.1903 7.06787C52.1903 9.22733 50.4865 10.9859 48.3986 10.9859C46.3012 10.9859 44.6031 9.22733 44.6031 7.06787C44.6031 4.90447 46.3069 3.14782 48.3986 3.14782ZM8.76625 20.451C9.45651 20.451 10.1068 20.6063 10.7191 20.8499C7.41043 23.591 5.18751 27.0296 4.51816 30.8259C3.60351 29.7216 3.03875 28.2675 3.03875 26.6681C3.03875 23.2412 5.60966 20.451 8.76625 20.451ZM30.1588 48.86C17.5686 48.86 7.32867 41.8413 7.32867 33.2133C7.32867 24.5833 17.5686 17.5665 30.1588 17.5665C42.7471 17.5665 52.9851 24.5852 52.9851 33.2133C52.9851 41.8393 42.7471 48.86 30.1588 48.86ZM55.7253 30.484C54.978 26.7899 52.7608 23.4476 49.5034 20.7752C50.0529 20.5827 50.6272 20.451 51.2338 20.451C54.3885 20.451 56.9575 23.2393 56.9575 26.6681C56.9537 28.1103 56.4859 29.4288 55.7253 30.484Z" fill="#092D72"/>
<path d="M38.4515 34.2253C40.6843 34.2253 42.4943 32.3549 42.4943 30.0477C42.4943 27.7405 40.6843 25.8701 38.4515 25.8701C36.2188 25.8701 34.4088 27.7405 34.4088 30.0477C34.4088 32.3549 36.2188 34.2253 38.4515 34.2253Z" fill="#092D72"/>
<path d="M37.8012 39.3343C29.2366 45.1753 22.3263 39.6722 22.0182 39.4227C21.3622 38.8785 20.4076 38.9866 19.8828 39.6605C19.3579 40.3402 19.4568 41.3265 20.111 41.8707C20.168 41.9198 24.1157 45.1262 29.8489 45.1262C32.6993 45.1262 35.9948 44.3305 39.4746 41.9591C40.1763 41.4797 40.3703 40.5053 39.9101 39.7842C39.4442 39.0573 38.501 38.8549 37.8012 39.3343Z" fill="#092D72"/>
</svg>
