<?xml version="1.0" encoding="utf-8"?>
<!-- Generator: Adobe Illustrator 25.2.1, SVG Export Plug-In . SVG Version: 6.00 Build 0)  -->
<svg version="1.1" id="Calque_1" xmlns="http://www.w3.org/2000/svg" xmlns:xlink="http://www.w3.org/1999/xlink" x="0px" y="0px"
	 viewBox="0 0 44 44" style="enable-background:new 0 0 44 44;" xml:space="preserve">
<style type="text/css">
	.st0{fill:#092D72;}
	.st1{fill:#FFFFFF;filter:url(#Adobe_OpacityMaskFilter);}
	.st2{mask:url(#path-1-inside-1_1_);fill:#092D72;}
	.st3{fill:#FFFFFF;filter:url(#Adobe_OpacityMaskFilter_1_);}
	.st4{mask:url(#path-3-inside-2_1_);fill:#092D72;}
	.st5{fill:#FFFFFF;filter:url(#Adobe_OpacityMaskFilter_2_);}
	.st6{mask:url(#path-5-inside-3_1_);fill:#092D72;}
	.st7{fill:#FFFFFF;filter:url(#Adobe_OpacityMaskFilter_3_);}
	.st8{mask:url(#path-7-inside-4_1_);fill:#092D72;}
	.st9{fill:#FFFFFF;filter:url(#Adobe_OpacityMaskFilter_4_);}
	.st10{mask:url(#path-9-inside-5_1_);fill:#092D72;}
	.st11{fill:#FFFFFF;filter:url(#Adobe_OpacityMaskFilter_5_);}
	.st12{mask:url(#path-11-inside-6_1_);fill:#092D72;}
	.st13{fill:#FFFFFF;filter:url(#Adobe_OpacityMaskFilter_6_);}
	.st14{mask:url(#path-13-inside-7_1_);fill:#092D72;}
	.st15{fill:#FFFFFF;filter:url(#Adobe_OpacityMaskFilter_7_);}
	.st16{mask:url(#path-15-inside-8_1_);fill:#092D72;}
	.st17{fill:#092D72;stroke:#092D72;stroke-width:2;stroke-linecap:round;stroke-linejoin:round;}
</style>
<path class="st0" d="M27.1,21.3L27.1,21.3c2.4,0,4.3-1.9,4.3-4.3V4.3c0-2.4-1.9-4.3-4.3-4.3c-2.4,0-4.3,1.9-4.3,4.3V17
	C22.8,19.4,24.7,21.3,27.1,21.3z M24.5,4.3c0-1.4,1.2-2.6,2.6-2.6c1.4,0,2.6,1.2,2.6,2.6V17c0,1.4-1.2,2.6-2.6,2.6h0
	c-1.4,0-2.6-1.2-2.6-2.6V4.3z"/>
<defs>
	<filter id="Adobe_OpacityMaskFilter" filterUnits="userSpaceOnUse" x="20.8" y="-2" width="12.6" height="25.3">
		<feColorMatrix  type="matrix" values="1 0 0 0 0  0 1 0 0 0  0 0 1 0 0  0 0 0 1 0"/>
	</filter>
</defs>
<mask maskUnits="userSpaceOnUse" x="20.8" y="-2" width="12.6" height="25.3" id="path-1-inside-1_1_">
	<path class="st1" d="M27.1,21.3L27.1,21.3c2.4,0,4.3-1.9,4.3-4.3V4.3c0-2.4-1.9-4.3-4.3-4.3c-2.4,0-4.3,1.9-4.3,4.3V17
		C22.8,19.4,24.7,21.3,27.1,21.3z M24.5,4.3c0-1.4,1.2-2.6,2.6-2.6c1.4,0,2.6,1.2,2.6,2.6V17c0,1.4-1.2,2.6-2.6,2.6h0
		c-1.4,0-2.6-1.2-2.6-2.6V4.3z"/>
</mask>
<path class="st2" d="M27.1,23.3L27.1,23.3l0-4h0V23.3z M27.1,23.3c3.5,0,6.3-2.9,6.3-6.3h-4c0,1.3-1.1,2.3-2.3,2.3V23.3z M33.4,17
	V4.3h-4V17H33.4z M33.4,4.3c0-3.5-2.8-6.3-6.3-6.3v4c1.3,0,2.3,1,2.3,2.3H33.4z M27.1-2c-3.5,0-6.3,2.9-6.3,6.3h4
	C24.8,3,25.8,2,27.1,2V-2z M20.8,4.3V17h4V4.3H20.8z M20.8,17c0,3.5,2.8,6.3,6.3,6.3v-4c-1.3,0-2.3-1-2.3-2.3H20.8z M26.5,4.3
	c0-0.3,0.3-0.6,0.6-0.6v-4c-2.6,0-4.6,2.1-4.6,4.6H26.5z M27.1,3.7c0.3,0,0.6,0.3,0.6,0.6h4c0-2.5-2-4.6-4.6-4.6V3.7z M27.7,4.3V17
	h4V4.3H27.7z M27.7,17c0,0.3-0.3,0.6-0.6,0.6v4c2.5,0,4.6-2.1,4.6-4.6H27.7z M27.1,17.6L27.1,17.6l0,4h0V17.6z M27.1,17.6
	c-0.3,0-0.6-0.3-0.6-0.6h-4c0,2.5,2,4.6,4.6,4.6V17.6z M26.5,17V4.3h-4V17H26.5z"/>
<path class="st0" d="M16.9,22.7L16.9,22.7c-2.4,0-4.3,1.9-4.3,4.3v12.7c0,2.4,1.9,4.3,4.3,4.3c2.4,0,4.3-1.9,4.3-4.3V27
	C21.2,24.6,19.3,22.7,16.9,22.7z M19.5,39.7c0,1.4-1.2,2.6-2.6,2.6c-1.4,0-2.6-1.2-2.6-2.6V27c0-1.4,1.2-2.6,2.6-2.6h0
	c1.4,0,2.6,1.2,2.6,2.6V39.7z"/>
<defs>
	<filter id="Adobe_OpacityMaskFilter_1_" filterUnits="userSpaceOnUse" x="10.6" y="20.7" width="12.6" height="25.3">
		<feColorMatrix  type="matrix" values="1 0 0 0 0  0 1 0 0 0  0 0 1 0 0  0 0 0 1 0"/>
	</filter>
</defs>
<mask maskUnits="userSpaceOnUse" x="10.6" y="20.7" width="12.6" height="25.3" id="path-3-inside-2_1_">
	<path class="st3" d="M16.9,22.7L16.9,22.7c-2.4,0-4.3,1.9-4.3,4.3v12.7c0,2.4,1.9,4.3,4.3,4.3c2.4,0,4.3-1.9,4.3-4.3V27
		C21.2,24.6,19.3,22.7,16.9,22.7z M19.5,39.7c0,1.4-1.2,2.6-2.6,2.6c-1.4,0-2.6-1.2-2.6-2.6V27c0-1.4,1.2-2.6,2.6-2.6h0
		c1.4,0,2.6,1.2,2.6,2.6V39.7z"/>
</mask>
<path class="st4" d="M16.9,20.7L16.9,20.7l0,4h0V20.7z M16.9,20.7c-3.5,0-6.3,2.9-6.3,6.3h4c0-1.3,1.1-2.3,2.3-2.3V20.7z M10.6,27
	v12.7h4V27H10.6z M10.6,39.7c0,3.5,2.8,6.3,6.3,6.3v-4c-1.3,0-2.3-1-2.3-2.3H10.6z M16.9,46c3.5,0,6.3-2.9,6.3-6.3h-4
	c0,1.3-1.1,2.3-2.3,2.3V46z M23.2,39.7V27h-4v12.7H23.2z M23.2,27c0-3.5-2.8-6.3-6.3-6.3v4c1.3,0,2.3,1,2.3,2.3H23.2z M17.5,39.7
	c0,0.3-0.3,0.6-0.6,0.6v4c2.6,0,4.6-2.1,4.6-4.6H17.5z M16.9,40.3c-0.3,0-0.6-0.3-0.6-0.6h-4c0,2.5,2,4.6,4.6,4.6V40.3z M16.3,39.7
	V27h-4v12.7H16.3z M16.3,27c0-0.3,0.3-0.6,0.6-0.6v-4c-2.5,0-4.6,2.1-4.6,4.6H16.3z M16.9,26.4L16.9,26.4l0-4h0V26.4z M16.9,26.4
	c0.3,0,0.6,0.3,0.6,0.6h4c0-2.5-2-4.6-4.6-4.6V26.4z M17.5,27v12.7h4V27H17.5z"/>
<path class="st0" d="M16.9,12.5H4.3c-2.4,0-4.3,1.9-4.3,4.3c0,2.4,1.9,4.3,4.3,4.3h12.6c2.4,0,4.3-1.9,4.3-4.3v0
	C21.2,14.5,19.3,12.5,16.9,12.5z M19.5,16.8c0,1.4-1.2,2.6-2.6,2.6H4.3c-1.4,0-2.6-1.2-2.6-2.6c0-1.4,1.2-2.6,2.6-2.6h12.6
	C18.3,14.2,19.5,15.4,19.5,16.8L19.5,16.8L19.5,16.8z"/>
<defs>
	<filter id="Adobe_OpacityMaskFilter_2_" filterUnits="userSpaceOnUse" x="-2" y="10.5" width="25.2" height="12.7">
		<feColorMatrix  type="matrix" values="1 0 0 0 0  0 1 0 0 0  0 0 1 0 0  0 0 0 1 0"/>
	</filter>
</defs>
<mask maskUnits="userSpaceOnUse" x="-2" y="10.5" width="25.2" height="12.7" id="path-5-inside-3_1_">
	<path class="st5" d="M16.9,12.5H4.3c-2.4,0-4.3,1.9-4.3,4.3c0,2.4,1.9,4.3,4.3,4.3h12.6c2.4,0,4.3-1.9,4.3-4.3v0
		C21.2,14.5,19.3,12.5,16.9,12.5z M19.5,16.8c0,1.4-1.2,2.6-2.6,2.6H4.3c-1.4,0-2.6-1.2-2.6-2.6c0-1.4,1.2-2.6,2.6-2.6h12.6
		C18.3,14.2,19.5,15.4,19.5,16.8L19.5,16.8L19.5,16.8z"/>
</mask>
<path class="st6" d="M21.2,16.8l-2,0v0H21.2z M19.5,16.8h2v-2h-2V16.8z M19.5,16.8h-2v2h2V16.8z M16.9,10.5H4.3v4h12.6V10.5z
	 M4.3,10.5c-3.5,0-6.3,2.9-6.3,6.3h4c0-1.3,1.1-2.3,2.3-2.3V10.5z M-2,16.8c0,3.5,2.8,6.3,6.3,6.3v-4c-1.3,0-2.3-1-2.3-2.3H-2z
	 M4.3,23.2h12.6v-4H4.3V23.2z M16.9,23.2c3.5,0,6.3-2.9,6.3-6.3h-4c0,1.3-1.1,2.3-2.3,2.3V23.2z M23.2,16.8L23.2,16.8l-4,0v0H23.2z
	 M23.2,16.8c0-3.5-2.8-6.3-6.3-6.3v4c1.3,0,2.3,1,2.3,2.3L23.2,16.8z M17.5,16.8c0,0.3-0.3,0.6-0.6,0.6v4c2.5,0,4.6-2.1,4.6-4.6
	H17.5z M16.9,17.5H4.3v4h12.6V17.5z M4.3,17.5c-0.3,0-0.6-0.3-0.6-0.6h-4c0,2.5,2,4.6,4.6,4.6V17.5z M3.7,16.8
	c0-0.3,0.3-0.6,0.6-0.6v-4c-2.5,0-4.6,2.1-4.6,4.6H3.7z M4.3,16.2h12.6v-4H4.3V16.2z M16.9,16.2c0.3,0,0.6,0.3,0.6,0.6h4
	c0-2.5-2-4.6-4.6-4.6V16.2z M17.5,16.8L17.5,16.8l4,0v0H17.5z M19.5,18.8L19.5,18.8l0-4h0V18.8z"/>
<path class="st0" d="M34.4,21.1h3.7c2.5,0,4.6-2.1,4.6-4.6v-0.8c0-2.5-2-4.6-4.6-4.6c-2.5,0-4.6,2.1-4.6,4.6v4.6
	C33.6,20.7,33.9,21.1,34.4,21.1z M35.3,15.7c0-1.6,1.3-2.9,2.9-2.9c1.6,0,2.8,1.3,2.8,2.9v0.8c0,1.6-1.3,2.9-2.8,2.9h-2.9V15.7z"/>
<defs>
	<filter id="Adobe_OpacityMaskFilter_3_" filterUnits="userSpaceOnUse" x="31.6" y="9.1" width="13.1" height="14">
		<feColorMatrix  type="matrix" values="1 0 0 0 0  0 1 0 0 0  0 0 1 0 0  0 0 0 1 0"/>
	</filter>
</defs>
<mask maskUnits="userSpaceOnUse" x="31.6" y="9.1" width="13.1" height="14" id="path-7-inside-4_1_">
	<path class="st7" d="M34.4,21.1h3.7c2.5,0,4.6-2.1,4.6-4.6v-0.8c0-2.5-2-4.6-4.6-4.6c-2.5,0-4.6,2.1-4.6,4.6v4.6
		C33.6,20.7,33.9,21.1,34.4,21.1z M35.3,15.7c0-1.6,1.3-2.9,2.9-2.9c1.6,0,2.8,1.3,2.8,2.9v0.8c0,1.6-1.3,2.9-2.8,2.9h-2.9V15.7z"/>
</mask>
<path class="st8" d="M35.3,19.4h-2v2h2V19.4z M34.4,23.1h3.7v-4h-3.7V23.1z M38.1,23.1c3.6,0,6.6-3,6.6-6.6h-4
	c0,1.4-1.2,2.6-2.6,2.6V23.1z M44.7,16.5v-0.8h-4v0.8H44.7z M44.7,15.7c0-3.6-2.9-6.6-6.6-6.6v4c1.4,0,2.6,1.2,2.6,2.6H44.7z
	 M38.1,9.1c-3.6,0-6.6,3-6.6,6.6h4c0-1.4,1.2-2.6,2.6-2.6V9.1z M31.6,15.7v4.6h4v-4.6H31.6z M31.6,20.3c0,1.6,1.3,2.9,2.9,2.9v-4
	c0.6,0,1.1,0.5,1.1,1.1H31.6z M37.3,15.7c0-0.5,0.4-0.9,0.9-0.9v-4c-2.7,0-4.9,2.2-4.9,4.9H37.3z M38.1,14.8c0.5,0,0.8,0.4,0.8,0.9
	h4c0-2.7-2.2-4.9-4.8-4.9V14.8z M39,15.7v0.8h4v-0.8H39z M39,16.5c0,0.5-0.4,0.9-0.8,0.9v4c2.7,0,4.8-2.2,4.8-4.9H39z M38.1,17.4
	h-2.9v4h2.9V17.4z M37.3,19.4v-3.7h-4v3.7H37.3z"/>
<path class="st0" d="M9.6,22.9H5.9c-2.5,0-4.6,2.1-4.6,4.6v0.8c0,2.5,2,4.6,4.6,4.6c2.5,0,4.6-2.1,4.6-4.6v-4.6
	C10.4,23.3,10.1,22.9,9.6,22.9z M8.7,28.3c0,1.6-1.3,2.9-2.9,2.9c-1.6,0-2.8-1.3-2.8-2.9v-0.8c0-1.6,1.3-2.9,2.8-2.9h2.9V28.3z"/>
<defs>
	<filter id="Adobe_OpacityMaskFilter_4_" filterUnits="userSpaceOnUse" x="-0.7" y="20.9" width="13.1" height="14">
		<feColorMatrix  type="matrix" values="1 0 0 0 0  0 1 0 0 0  0 0 1 0 0  0 0 0 1 0"/>
	</filter>
</defs>
<mask maskUnits="userSpaceOnUse" x="-0.7" y="20.9" width="13.1" height="14" id="path-9-inside-5_1_">
	<path class="st9" d="M9.6,22.9H5.9c-2.5,0-4.6,2.1-4.6,4.6v0.8c0,2.5,2,4.6,4.6,4.6c2.5,0,4.6-2.1,4.6-4.6v-4.6
		C10.4,23.3,10.1,22.9,9.6,22.9z M8.7,28.3c0,1.6-1.3,2.9-2.9,2.9c-1.6,0-2.8-1.3-2.8-2.9v-0.8c0-1.6,1.3-2.9,2.8-2.9h2.9V28.3z"/>
</mask>
<path class="st10" d="M8.7,24.6h2v-2h-2V24.6z M9.6,20.9H5.9v4h3.7V20.9z M5.9,20.9c-3.6,0-6.6,3-6.6,6.6h4c0-1.4,1.2-2.6,2.6-2.6
	V20.9z M-0.7,27.5v0.8h4v-0.8H-0.7z M-0.7,28.3c0,3.6,2.9,6.6,6.6,6.6v-4c-1.4,0-2.6-1.2-2.6-2.6H-0.7z M5.9,34.9
	c3.6,0,6.6-3,6.6-6.6h-4c0,1.4-1.2,2.6-2.6,2.6V34.9z M12.4,28.3v-4.6h-4v4.6H12.4z M12.4,23.7c0-1.6-1.3-2.9-2.9-2.9v4
	c-0.6,0-1.1-0.5-1.1-1.1H12.4z M6.7,28.3c0,0.5-0.4,0.9-0.9,0.9v4c2.7,0,4.9-2.2,4.9-4.9H6.7z M5.9,29.2c-0.5,0-0.8-0.4-0.8-0.9H1
	c0,2.7,2.2,4.9,4.8,4.9V29.2z M5,28.3v-0.8H1v0.8H5z M5,27.5c0-0.5,0.4-0.9,0.8-0.9v-4c-2.7,0-4.8,2.2-4.8,4.9H5z M5.9,26.6h2.9v-4
	H5.9V26.6z M6.7,24.6v3.7h4v-3.7H6.7z"/>
<path class="st0" d="M16,10.8h3.7c0.5,0,0.9-0.4,0.9-0.9V5.4c0-2.5-2-4.6-4.6-4.6c-2.5,0-4.6,2.1-4.6,4.6v0.8
	C11.4,8.8,13.5,10.8,16,10.8z M13.1,5.4c0-1.6,1.3-2.9,2.9-2.9c1.6,0,2.8,1.3,2.8,2.9v3.7H16c-1.6,0-2.8-1.3-2.8-2.9V5.4z"/>
<defs>
	<filter id="Adobe_OpacityMaskFilter_5_" filterUnits="userSpaceOnUse" x="9.4" y="-1.2" width="13.1" height="14">
		<feColorMatrix  type="matrix" values="1 0 0 0 0  0 1 0 0 0  0 0 1 0 0  0 0 0 1 0"/>
	</filter>
</defs>
<mask maskUnits="userSpaceOnUse" x="9.4" y="-1.2" width="13.1" height="14" id="path-11-inside-6_1_">
	<path class="st11" d="M16,10.8h3.7c0.5,0,0.9-0.4,0.9-0.9V5.4c0-2.5-2-4.6-4.6-4.6c-2.5,0-4.6,2.1-4.6,4.6v0.8
		C11.4,8.8,13.5,10.8,16,10.8z M13.1,5.4c0-1.6,1.3-2.9,2.9-2.9c1.6,0,2.8,1.3,2.8,2.9v3.7H16c-1.6,0-2.8-1.3-2.8-2.9V5.4z"/>
</mask>
<path class="st12" d="M18.8,9.1v2h2v-2H18.8z M16,12.8h3.7v-4H16V12.8z M19.7,12.8c1.6,0,2.9-1.3,2.9-2.9h-4c0-0.6,0.5-1.1,1.1-1.1
	V12.8z M22.6,10V5.4h-4V10H22.6z M22.6,5.4c0-3.6-2.9-6.6-6.6-6.6v4c1.4,0,2.6,1.2,2.6,2.6H22.6z M16-1.2c-3.6,0-6.6,3-6.6,6.6h4
	c0-1.4,1.2-2.6,2.6-2.6V-1.2z M9.4,5.4v0.8h4V5.4H9.4z M9.4,6.2c0,3.6,2.9,6.6,6.6,6.6v-4c-1.4,0-2.6-1.2-2.6-2.6H9.4z M15.1,5.4
	c0-0.5,0.4-0.9,0.9-0.9v-4c-2.7,0-4.9,2.2-4.9,4.9H15.1z M16,4.5c0.5,0,0.8,0.4,0.8,0.9h4c0-2.7-2.2-4.9-4.8-4.9V4.5z M16.8,5.4v3.7
	h4V5.4H16.8z M18.8,7.1H16v4h2.9V7.1z M16,7.1c-0.5,0-0.8-0.4-0.8-0.9h-4c0,2.7,2.2,4.9,4.8,4.9V7.1z M15.1,6.2V5.4h-4v0.8H15.1z"/>
<path class="st0" d="M28,33.2h-3.7c-0.5,0-0.9,0.4-0.9,0.9v4.6c0,2.5,2,4.6,4.6,4.6c2.5,0,4.6-2.1,4.6-4.6v-0.8
	C32.6,35.2,30.5,33.2,28,33.2z M30.9,38.6c0,1.6-1.3,2.9-2.9,2.9c-1.6,0-2.8-1.3-2.8-2.9v-3.7H28c1.6,0,2.8,1.3,2.8,2.9V38.6z"/>
<defs>
	<filter id="Adobe_OpacityMaskFilter_6_" filterUnits="userSpaceOnUse" x="21.4" y="31.2" width="13.1" height="14">
		<feColorMatrix  type="matrix" values="1 0 0 0 0  0 1 0 0 0  0 0 1 0 0  0 0 0 1 0"/>
	</filter>
</defs>
<mask maskUnits="userSpaceOnUse" x="21.4" y="31.2" width="13.1" height="14" id="path-13-inside-7_1_">
	<path class="st13" d="M28,33.2h-3.7c-0.5,0-0.9,0.4-0.9,0.9v4.6c0,2.5,2,4.6,4.6,4.6c2.5,0,4.6-2.1,4.6-4.6v-0.8
		C32.6,35.2,30.5,33.2,28,33.2z M30.9,38.6c0,1.6-1.3,2.9-2.9,2.9c-1.6,0-2.8-1.3-2.8-2.9v-3.7H28c1.6,0,2.8,1.3,2.8,2.9V38.6z"/>
</mask>
<path class="st14" d="M25.2,34.9v-2h-2v2H25.2z M28,31.2h-3.7v4H28V31.2z M24.3,31.2c-1.6,0-2.9,1.3-2.9,2.9h4
	c0,0.6-0.5,1.1-1.1,1.1V31.2z M21.4,34v4.6h4V34H21.4z M21.4,38.6c0,3.6,2.9,6.6,6.6,6.6v-4c-1.4,0-2.6-1.2-2.6-2.6H21.4z M28,45.2
	c3.6,0,6.6-3,6.6-6.6h-4c0,1.4-1.2,2.6-2.6,2.6V45.2z M34.6,38.6v-0.8h-4v0.8H34.6z M34.6,37.8c0-3.6-2.9-6.6-6.6-6.6v4
	c1.4,0,2.6,1.2,2.6,2.6H34.6z M28.9,38.6c0,0.5-0.4,0.9-0.9,0.9v4c2.7,0,4.9-2.2,4.9-4.9H28.9z M28,39.5c-0.5,0-0.8-0.4-0.8-0.9h-4
	c0,2.7,2.2,4.9,4.8,4.9V39.5z M27.2,38.6v-3.7h-4v3.7H27.2z M25.2,36.9H28v-4h-2.9V36.9z M28,36.9c0.5,0,0.8,0.4,0.8,0.9h4
	c0-2.7-2.2-4.9-4.8-4.9V36.9z M28.9,37.8v0.8h4v-0.8H28.9z"/>
<path class="st0" d="M39.7,22.8H27.1c-2.4,0-4.3,1.9-4.3,4.3c0,2.4,1.9,4.3,4.3,4.3h2.6c0.5,0,0.9-0.4,0.9-0.9s-0.4-0.9-0.9-0.9
	h-2.6c-1.4,0-2.6-1.2-2.6-2.6c0-1.4,1.2-2.6,2.6-2.6h12.6c1.4,0,2.6,1.2,2.6,2.6c0,1.4-1.2,2.6-2.6,2.6h-2.3c-0.5,0-0.9,0.4-0.9,0.9
	s0.4,0.9,0.9,0.9h2.3c2.4,0,4.3-1.9,4.3-4.3C44,24.8,42.1,22.8,39.7,22.8z"/>
<defs>
	<filter id="Adobe_OpacityMaskFilter_7_" filterUnits="userSpaceOnUse" x="20.8" y="20.8" width="25.2" height="12.7">
		<feColorMatrix  type="matrix" values="1 0 0 0 0  0 1 0 0 0  0 0 1 0 0  0 0 0 1 0"/>
	</filter>
</defs>
<mask maskUnits="userSpaceOnUse" x="20.8" y="20.8" width="25.2" height="12.7" id="path-15-inside-8_1_">
	<path class="st15" d="M39.7,22.8H27.1c-2.4,0-4.3,1.9-4.3,4.3c0,2.4,1.9,4.3,4.3,4.3h2.6c0.5,0,0.9-0.4,0.9-0.9s-0.4-0.9-0.9-0.9
		h-2.6c-1.4,0-2.6-1.2-2.6-2.6c0-1.4,1.2-2.6,2.6-2.6h12.6c1.4,0,2.6,1.2,2.6,2.6c0,1.4-1.2,2.6-2.6,2.6h-2.3
		c-0.5,0-0.9,0.4-0.9,0.9s0.4,0.9,0.9,0.9h2.3c2.4,0,4.3-1.9,4.3-4.3C44,24.8,42.1,22.8,39.7,22.8z"/>
</mask>
<path class="st16" d="M39.7,20.8H27.1v4h12.6V20.8z M27.1,20.8c-3.5,0-6.3,2.9-6.3,6.3h4c0-1.3,1.1-2.3,2.3-2.3V20.8z M20.8,27.2
	c0,3.5,2.8,6.3,6.3,6.3v-4c-1.3,0-2.3-1-2.3-2.3H20.8z M27.1,33.5h2.6v-4h-2.6V33.5z M29.6,33.5c1.6,0,2.9-1.3,2.9-2.9h-4
	c0-0.6,0.5-1.1,1.1-1.1V33.5z M32.5,30.6c0-1.6-1.3-2.9-2.9-2.9v4c-0.6,0-1.1-0.5-1.1-1.1H32.5z M29.6,27.8h-2.6v4h2.6V27.8z
	 M27.1,27.8c-0.3,0-0.6-0.3-0.6-0.6h-4c0,2.5,2,4.6,4.6,4.6V27.8z M26.5,27.2c0-0.3,0.3-0.6,0.6-0.6v-4c-2.5,0-4.6,2.1-4.6,4.6H26.5
	z M27.1,26.5h12.6v-4H27.1V26.5z M39.7,26.5c0.3,0,0.6,0.3,0.6,0.6h4c0-2.5-2-4.6-4.6-4.6V26.5z M40.3,27.2c0,0.3-0.3,0.6-0.6,0.6v4
	c2.5,0,4.6-2.1,4.6-4.6H40.3z M39.7,27.8h-2.3v4h2.3V27.8z M37.4,27.8c-1.6,0-2.9,1.3-2.9,2.9h4c0,0.6-0.5,1.1-1.1,1.1V27.8z
	 M34.6,30.6c0,1.6,1.3,2.9,2.9,2.9v-4c0.6,0,1.1,0.5,1.1,1.1H34.6z M37.4,33.5h2.3v-4h-2.3V33.5z M39.7,33.5c3.5,0,6.3-2.9,6.3-6.3
	h-4c0,1.3-1.1,2.3-2.3,2.3V33.5z M46,27.2c0-3.5-2.8-6.3-6.3-6.3v4c1.3,0,2.3,1,2.3,2.3H46z"/>
<path class="st17" d="M33.5,30.7C33.5,30.7,33.5,30.7,33.5,30.7C33.5,30.8,33.5,30.8,33.5,30.7l0.1-0.1v0v0l0,0l0,0l0,0l0,0
	l-0.1-0.1c0,0,0,0,0,0.1c0,0,0,0,0,0L33.5,30.7z M33.5,30.7C33.5,30.7,33.5,30.7,33.5,30.7C33.4,30.7,33.4,30.7,33.5,30.7L33.5,30.7
	C33.4,30.7,33.4,30.7,33.5,30.7c-0.1-0.1-0.1-0.1-0.1-0.2L33.5,30.7z M33.5,30.6l-0.1-0.1c0,0,0,0,0,0c0,0,0,0,0.1,0L33.5,30.6
	L33.5,30.6L33.5,30.6z M33.5,30.6L33.5,30.6L33.5,30.6L33.5,30.6L33.5,30.6L33.5,30.6L33.5,30.6L33.5,30.6c0.1,0.1,0,0.1,0,0.1
	c0,0,0,0,0,0L33.5,30.6L33.5,30.6L33.5,30.6L33.5,30.6L33.5,30.6z M33.5,30.6L33.5,30.6l0-0.1c0,0,0.1,0,0.1,0c0,0,0,0,0,0
	C33.6,30.5,33.6,30.5,33.5,30.6c0.1-0.1,0.1-0.1,0.1,0l0,0c0,0,0,0.1,0,0.1c0,0,0,0,0,0c0,0,0,0,0,0c0,0,0,0,0,0L33.5,30.6
	L33.5,30.6L33.5,30.6L33.5,30.6L33.5,30.6L33.5,30.6z"/>
</svg>
