<?xml version="1.0" encoding="utf-8"?>
<!-- Generator: Adobe Illustrator 25.2.1, SVG Export Plug-In . SVG Version: 6.00 Build 0)  -->
<svg version="1.1" id="Calque_1" xmlns="http://www.w3.org/2000/svg" xmlns:xlink="http://www.w3.org/1999/xlink" x="0px" y="0px"
	 viewBox="0 0 52 44" style="enable-background:new 0 0 52 44;" xml:space="preserve">
<style type="text/css">
	.st0{fill:#092D72;}
</style>
<path class="st0" d="M10.2,28.6 M17.5,34.6L17.5,34.6 M12.2,27.8c0,0,0,0.4-2,0.8c0,0,5.2,5.9,7.3,5.9c-2.7,2-5.8,3.4-9.1,4.1
	l-0.9,0.2l0.9,0.3c2.8,1,5.8,1.4,8.8,1.4c7.6,0,14.6-2.9,19.7-8.2c5-5.3,7.7-12.4,7.3-19.6v0c0-0.5,0.2-0.9,0.6-1.2
	c1.1-0.8,2.3-2.1,3-3.6l0.3-0.5l-0.5,0.1c-0.8,0.2-2,0.3-3.1,0.2c-0.6,0-1.1-0.1-1.5-0.3c-0.5-0.1-0.8-0.3-1-0.5l0,0
	C38.6,3.5,34.2,4,31.5,5.4c-2.7,1.5-5.3,4.7-4.3,9.3c0.2,0.9-0.5,1.7-1.4,1.7l0,0C18.3,16,11.2,12.8,6,7.5L5.7,7.2L5.6,7.7
	c-0.9,3.4,0.5,7,3.6,9.1l0,0c1.1,0.7,0.6,2.5-0.8,2.5c-0.8,0-1.6-0.1-2.4-0.3l-0.4-0.1l0.1,0.4c0.9,2.9,3.4,5.2,6.5,5.8h0
	 M12.1,25.1l0.1,2.7 M12.1,25.1 M12.1,25.1c1.4,0.3,1.5,2.3,0.1,2.7L12.1,25.1z M1.2,38.7L1.2,38.7c-1.2-0.8-0.5-2.7,0.9-2.5l0,0
	c3.3,0.4,7.1-0.1,10.4-1.7l0.5-0.2L12.5,34c-3-1.2-5.4-3.7-6.5-6.9h0c-0.2-0.5,0-1.1,0.4-1.4l0.2-0.2l-0.2-0.2
	c-2.4-2.1-3.9-5.1-3.9-8.5c0-0.7,0.5-1.3,1.2-1.4L4,15.3L3.9,15C2.1,11.7,2,7.6,4.1,4c0.5-0.8,1.6-0.9,2.2-0.2
	c4.4,5.3,10.8,8.8,17.6,9.6l0.3,0l0-0.3C24.1,9,26.2,5.1,30.2,3l0,0c4.5-2.4,9.9-1.7,13.5,1.8l0,0l0.1,0c1.9,0.5,3.7,0.2,5.7-0.9
	c0.9-0.5,2.1,0.1,2.1,1.2c0,1.6-0.6,3.2-1.4,4.6c-0.8,1.4-1.9,2.7-2.9,3.5L47,13.3l0,0.1c0.1,7.6-2.8,15.2-8.1,20.8
	c-5.6,5.9-13.3,9.1-21.7,9.1C11.5,43.3,5.9,41.7,1.2,38.7z"/>
</svg>
